<svg id="Capa_1" data-name="Capa 1" xmlns="http://www.w3.org/2000/svg" viewBox="0 0 50 50"><defs><style>.cls-1{fill:#00ccb7;opacity:0.9;}.cls-2{fill:#fff;}</style></defs><circle class="cls-1" cx="25" cy="25" r="25"/><path class="cls-2" d="M39.83,18.64a.94.94,0,0,0-.93-.05l-6.31,3.25V19.48a2.93,2.93,0,0,0-2.88-3H16.24a2.93,2.93,0,0,0-2.88,3V31.36a2.93,2.93,0,0,0,2.88,3H29.71a2.93,2.93,0,0,0,2.88-3V29l6.31,3.25a.94.94,0,0,0,1.29-.44,1.14,1.14,0,0,0,.1-.45V19.48A1,1,0,0,0,39.83,18.64ZM30.67,31.36a1,1,0,0,1-1,1H16.24a1,1,0,0,1-1-1V19.48a1,1,0,0,1,1-1H29.71a1,1,0,0,1,1,1Zm7.69-1.6-5.77-3V24.05l5.77-3Z"/></svg>
