<svg id="Capa_1" data-name="Capa 1" xmlns="http://www.w3.org/2000/svg" viewBox="0 0 50 50"><defs><style>.cls-1{fill:#00ccb7;opacity:0.9;}.cls-2{fill:#fff;}</style></defs><circle class="cls-1" cx="25" cy="25" r="25"/><path class="cls-2" d="M39.83,18.62a.93.93,0,0,0-.94,0l-6.32,3.25V19.47a2.93,2.93,0,0,0-2.89-3H17.28l2,2H29.68a1,1,0,0,1,1,1V29.86l1.89,1.89c0-.13,0-.25,0-.37V29l6.32,3.26a1,1,0,0,0,1.3-.45,1.09,1.09,0,0,0,.1-.44V19.47A1,1,0,0,0,39.83,18.62ZM38.36,29.77l-5.79-3V24.05l5.79-3Z"/><path class="cls-2" d="M30,32.3a.88.88,0,0,1-.32.07H16.18a1,1,0,0,1-1-1V19.47a1,1,0,0,1,1-1L14.65,17a3,3,0,0,0-1.36,2.52V31.38a2.93,2.93,0,0,0,2.89,3h13.5a2.79,2.79,0,0,0,1.75-.62Z"/><path class="cls-2" d="M29.82,35.22,12.71,18.1a1.18,1.18,0,0,1-.11-1.66h0a1.19,1.19,0,0,1,1.65.11L31.37,33.67a1.18,1.18,0,0,1,.11,1.66h0A1.2,1.2,0,0,1,29.82,35.22Z"/></svg>
