<svg id="Capa_1" data-name="Capa 1" xmlns="http://www.w3.org/2000/svg" viewBox="0 0 50 50">
<!-- <defs>
   <style>.cls-1{opacity:0.9;}.cls-2{fill:#2b3c45;}.cls-3,.cls-4{fill:none;stroke:#fff;stroke-miterlimit:10;stroke-width:1.68px;}.cls-4{stroke-linecap:round;}</style>
</defs> -->
<!-- <circle class="cls-2" cx="25" cy="25" r="25"/> -->
<path class="cls-3" d="M34.54,33H19.67a1,1,0,0,0-.57.19L16,35.51a1,1,0,0,1-1.53-.76V16.57a1,1,0,0,1,1-1H34.54a1,1,0,0,1,1,1v15.5A1,1,0,0,1,34.54,33Z"/>
    <line class="cls-4" x1="18.84" y1="20" x2="25" y2="20"/>
    <line class="cls-4" x1="28" y1="20" x2="30.76" y2="20"/>
    <line class="cls-4" x1="18.84" y1="24.08" x2="30.76" y2="24.08"/>
    <line class="cls-4" x1="24.8" y1="28.17" x2="30.76" y2="28.17"/>
    <line class="cls-4" x1="18.84" y1="28.17" x2="21.92" y2="28.17"/>
</svg>