<svg id="Capa_1" data-name="Capa 1" xmlns="http://www.w3.org/2000/svg" viewBox="0 0 50 50">
    <!-- <defs>
        <style>.cls-1{fill:#00ccb7;opacity:0.9;}.cls-2{fill:#fff;}</style>
    </defs>
    <circle class="cls-1" cx="25" cy="25" r="25"/> -->
    <path class="cls-2" d="M25,31.94a6.26,6.26,0,0,0,6.26-6.25V19.43a6.26,6.26,0,0,0-12.52,0v6.26A6.26,6.26,0,0,0,25,31.94ZM20.83,19.43a4.17,4.17,0,1,1,8.34,0v6.26a4.17,4.17,0,1,1-8.34,0Z"/><path class="cls-2" d="M24,36v2A1,1,0,1,0,26,38V36a10.4,10.4,0,0,0,9.39-10.32V22.56a1,1,0,1,0-2.08,0v3.13a8.35,8.35,0,0,1-16.7,0V22.56a1,1,0,1,0-2.08,0v3.13A10.4,10.4,0,0,0,24,36Z"/>
</svg>