<svg id="Capa_1" data-name="Capa 1" xmlns="http://www.w3.org/2000/svg" viewBox="0 0 50 50"><defs><style>.cls-1{fill:#00ccb7;opacity:0.9;}.cls-2{fill:#fff;}</style></defs><circle class="cls-1" cx="25" cy="25" r="25"/><path class="cls-2" d="M32.56,36.3,15.37,19.11a1.37,1.37,0,0,1-.13-1.93h0a1.37,1.37,0,0,1,1.93.13L34.36,34.5a1.37,1.37,0,0,1,.13,1.93h0A1.37,1.37,0,0,1,32.56,36.3Z"/><path class="cls-2" d="M25,15.35a4.17,4.17,0,0,1,4.17,4.17v6.26a1.49,1.49,0,0,1,0,.21l1.76,1.76a6.13,6.13,0,0,0,.35-2V19.52a6.24,6.24,0,0,0-11.67-3.09L21.13,18A4.19,4.19,0,0,1,25,15.35Z"/><path class="cls-2" d="M25,30a4.18,4.18,0,0,1-4.17-4.18V21.26l-2.06-2.05c0,.1,0,.21,0,.31v6.26A6.24,6.24,0,0,0,29.58,30l-1.47-1.48A4.17,4.17,0,0,1,25,30Z"/><path class="cls-2" d="M25,34.13a8.36,8.36,0,0,1-8.35-8.35V22.65a1,1,0,0,0-2.08,0v3.13A10.41,10.41,0,0,0,24,36.11v2a1,1,0,0,0,2.08,0v-2A10.48,10.48,0,0,0,32.52,33L31.06,31.5A8.32,8.32,0,0,1,25,34.13Z"/><path class="cls-2" d="M35.43,22.65a1,1,0,1,0-2.08,0v3.13a8.22,8.22,0,0,1-.82,3.58l1.53,1.54a10.2,10.2,0,0,0,1.37-5.12Z"/></svg>
