<svg width="32" height="32" viewBox="0 0 32 32" fill="none" xmlns="http://www.w3.org/2000/svg">
<path d="M16 32C7.163 32 0 24.837 0 16C0 7.163 7.163 0 16 0C24.837 0 32 7.163 32 16C32 24.837 24.837 32 16 32ZM9.633 19.897H11.421L8.681 12.006H6.74L4 19.897H5.657L6.264 18.016H9.037L9.633 19.897ZM14.434 12.005H12.782V17.173C12.782 18.923 14.067 20.099 16.085 20.099C18.108 20.099 19.394 18.923 19.394 17.173V12.005H17.742V17.003C17.742 17.998 17.146 18.633 16.085 18.633C15.03 18.633 14.433 17.999 14.433 17.003V12.005H14.434ZM21.32 12V19.897H24.426C26.789 19.897 28.128 18.459 28.128 15.894C28.128 13.422 26.772 12 24.426 12H21.32ZM22.971 13.411V18.486H24.163C25.623 18.486 26.443 17.589 26.443 15.921C26.443 14.324 25.595 13.411 24.163 13.411H22.971ZM7.609 13.646L6.619 16.741H8.686L7.707 13.646H7.609Z" fill="#70A6A6"/>
</svg>
