<svg width="24" height="24" viewBox="0 0 24 24" fill="none" xmlns="http://www.w3.org/2000/svg">
<path d="M16.6392 15.9217L11.5616 11.4982L16.6392 7.07464C17.1203 6.65698 17.1203 5.88455 16.6392 5.4669L10.638 0.243982C9.98505 -0.321871 8.99703 0.158655 8.99703 1.04785V8.97429L5.70648 5.53426C5.31557 5.12559 4.6841 5.12559 4.29318 5.53426C3.90227 5.94293 3.90227 6.60309 4.29318 7.01177L8.58463 11.4982L4.29318 15.9891C3.90227 16.3977 3.90227 17.0579 4.29318 17.4666C4.6841 17.8752 5.31557 17.8752 5.70648 17.4666L8.99703 14.0265V21.953C8.99703 22.8377 9.98505 23.3227 10.638 22.7569L16.6349 17.5294C17.116 17.1118 17.116 16.3394 16.6392 15.9217ZM10.9988 3.27983L14.4354 6.27526L10.9988 9.27069V3.27983ZM10.9988 19.721V13.7301L14.4354 16.7256L10.9988 19.721Z" fill="#70A6A6"/>
</svg>
