<svg width="32" height="32" viewBox="0 0 32 32" fill="none" xmlns="http://www.w3.org/2000/svg">
<path d="M14.667 12C14.667 13.473 13.473 14.667 12 14.667C10.527 14.667 9.33301 13.473 9.33301 12C9.33301 10.527 10.527 9.33301 12 9.33301C13.473 9.33301 14.667 10.527 14.667 12Z" fill="#70A6A6"/>
<path d="M22.667 12C22.667 13.473 21.473 14.667 20 14.667C18.527 14.667 17.333 13.473 17.333 12C17.333 10.527 18.527 9.33301 20 9.33301C21.473 9.33301 22.667 10.527 22.667 12Z" fill="#70A6A6"/>
<path d="M14.667 20C14.667 21.473 13.473 22.667 12 22.667C10.527 22.667 9.33301 21.473 9.33301 20C9.33301 18.527 10.527 17.333 12 17.333C13.473 17.333 14.667 18.527 14.667 20Z" fill="#70A6A6"/>
<path d="M13.333 26.667C13.333 27.403 12.736 28 12 28C11.264 28 10.667 27.403 10.667 26.667C10.667 25.931 11.264 25.334 12 25.334C12.736 25.334 13.333 25.931 13.333 26.667Z" fill="#70A6A6"/>
<path d="M21.333 26.667C21.333 27.403 20.736 28 20 28C19.264 28 18.667 27.403 18.667 26.667C18.667 25.931 19.264 25.334 20 25.334C20.736 25.334 21.333 25.931 21.333 26.667Z" fill="#70A6A6"/>
<path d="M6.66698 20C6.66698 20.736 6.06998 21.333 5.33398 21.333C4.59798 21.333 4.00098 20.736 4.00098 20C4.00098 19.264 4.59798 18.667 5.33398 18.667C6.06998 18.667 6.66698 19.264 6.66698 20Z" fill="#70A6A6"/>
<path d="M6.66698 12C6.66698 12.736 6.06998 13.333 5.33398 13.333C4.59798 13.333 4.00098 12.736 4.00098 12C4.00098 11.264 4.59798 10.667 5.33398 10.667C6.06998 10.667 6.66698 11.264 6.66698 12Z" fill="#70A6A6"/>
<path d="M28 20C28 20.736 27.403 21.333 26.667 21.333C25.931 21.333 25.334 20.736 25.334 20C25.334 19.264 25.931 18.667 26.667 18.667C27.403 18.667 28 19.264 28 20Z" fill="#70A6A6"/>
<path d="M28 12C28 12.736 27.403 13.333 26.667 13.333C25.931 13.333 25.334 12.736 25.334 12C25.334 11.264 25.931 10.667 26.667 10.667C27.403 10.667 28 11.264 28 12Z" fill="#70A6A6"/>
<path d="M13.333 5.333C13.333 6.069 12.736 6.666 12 6.666C11.264 6.666 10.667 6.069 10.667 5.333C10.667 4.597 11.264 4 12 4C12.736 4 13.333 4.597 13.333 5.333Z" fill="#70A6A6"/>
<path d="M21.333 5.333C21.333 6.069 20.736 6.666 20 6.666C19.264 6.666 18.667 6.069 18.667 5.333C18.667 4.597 19.264 4 20 4C20.736 4 21.333 4.597 21.333 5.333Z" fill="#70A6A6"/>
<path d="M22.667 20C22.667 21.473 21.473 22.667 20 22.667C18.527 22.667 17.333 21.473 17.333 20C17.333 18.527 18.527 17.333 20 17.333C21.473 17.333 22.667 18.527 22.667 20Z" fill="#70A6A6"/>
</svg>
