<svg width="20" height="20" viewBox="0 0 20 20" fill="none" xmlns="http://www.w3.org/2000/svg">
<g clip-path="url(#clip0)">
<path d="M17.9 1.2H17V0.7C17 0.3 16.7 0 16.3 0C15.9 0 15.6 0.3 15.6 0.7V1.2H14.7V0.7C14.7 0.3 14.4 0 14 0C13.6 0 13.3 0.3 13.3 0.7V1.2H7.4V0.7C7.4 0.3 7.1 0 6.7 0C6.3 0 6.1 0.3 6.1 0.7V1.2H5.2V0.7C5.2 0.3 4.9 0 4.5 0C4.1 0 3.8 0.3 3.8 0.7V1.2H2.9C1.9 1.2 1 2.1 1 3.1V17.3C1 18.4 1.9 19.2 2.9 19.2H17.8C18.9 19.2 19.7 18.3 19.7 17.3V3.1C19.8 2.1 18.9 1.2 17.9 1.2ZM2.4 6.1H18.5V17.3C18.5 17.6 18.2 17.9 17.9 17.9H2.9C2.6 17.9 2.3 17.6 2.3 17.3V6.1H2.4ZM4.5 3.8C4.9 3.8 5.2 3.5 5.2 3.1V2.6H6.1V3.1C6.1 3.5 6.4 3.8 6.8 3.8C7.2 3.8 7.5 3.5 7.5 3.1V2.6H13.4V3.1C13.4 3.5 13.7 3.8 14.1 3.8C14.5 3.8 14.8 3.5 14.8 3.1V2.6H15.7V3.1C15.7 3.5 16 3.8 16.4 3.8C16.8 3.8 17 3.5 17 3.1V2.6H17.9C18.2 2.6 18.5 2.9 18.5 3.2V4.8H2.4V3.1C2.4 2.8 2.7 2.5 3 2.5H3.9V3C3.8 3.5 4.1 3.8 4.5 3.8Z" fill="#70A6A6"/>
<path fill-rule="evenodd" clip-rule="evenodd" d="M10.5 8C10.1134 8 9.80001 8.3134 9.80001 8.7V10.8H7.7C7.3134 10.8 7 11.1134 7 11.5C7 11.8866 7.3134 12.2 7.7 12.2H9.80001V14.3C9.80001 14.6866 10.1134 15 10.5 15C10.8866 15 11.2 14.6866 11.2 14.3V12.2H13.3C13.6866 12.2 14 11.8866 14 11.5C14 11.1134 13.6866 10.8 13.3 10.8H11.2V8.7C11.2 8.3134 10.8866 8 10.5 8Z" fill="#70A6A6"/>
</g>
<defs>
<clipPath id="clip0">
<rect width="20" height="20" fill="white"/>
</clipPath>
</defs>
</svg>
