<svg width="32" height="32" viewBox="0 0 32 32" fill="none" xmlns="http://www.w3.org/2000/svg">
<path d="M29.5 9.20001C29.2 9.00001 28.9 9.00001 28.6 9.20001L22.3 12.4V10C22.3 8.4 21 7 19.4 7H5.9C4.3 7 3 8.3 3 10V21.9C3 23.5 4.3 24.9 5.9 24.9H19.4C21 24.9 22.3 23.6 22.3 21.9V19.5L28.6 22.7C29.1 22.9 29.7 22.7 29.9 22.3C30 22.2 30 22 30 21.9V10C30 9.7 29.8 9.40001 29.5 9.20001ZM20.4 21.9C20.4 22.4 20 22.9 19.4 22.9H5.9C5.4 22.9 4.9 22.5 4.9 21.9V10C4.9 9.5 5.3 9 5.9 9H19.4C19.9 9 20.4 9.4 20.4 10V21.9ZM28.1 20.3L22.3 17.3V14.6L28.1 11.6V20.3Z" fill="#70A6A6"/>
</svg>
