<svg width="32" height="32" viewBox="0 0 32 32" fill="none" xmlns="http://www.w3.org/2000/svg">
<path d="M22.667 16C22.667 19.682 19.682 22.667 16 22.667C12.318 22.667 9.33301 19.682 9.33301 16C9.33301 12.318 12.318 9.33301 16 9.33301C19.682 9.33301 22.667 12.318 22.667 16Z" fill="#70A6A6"/>
<path d="M16 24C20.418 24 24 20.418 24 16C24 11.582 20.418 7.99999 16 7.99999C11.582 7.99999 7.99999 11.582 7.99999 16C7.99999 20.418 11.582 24 16 24ZM16 25.333C10.845 25.333 6.66699 21.154 6.66699 16C6.66699 10.846 10.846 6.66699 16 6.66699C21.155 6.66699 25.333 10.846 25.333 16C25.333 21.154 21.154 25.333 16 25.333Z" fill="#70A6A6"/>
</svg>
