<svg width="32" height="32" viewBox="0 0 32 32" fill="none" xmlns="http://www.w3.org/2000/svg">
<path d="M30.0002 9.1C29.7002 8.9 29.4002 8.9 29.1002 9.1L22.8002 12.4V10C22.8002 8.4 21.5003 7 19.9003 7H7.50024L9.50024 9H19.9003C20.4003 9 20.9003 9.4 20.9003 10V20.4L22.8002 22.3C22.8002 22.2 22.8002 22.1 22.8002 21.9V19.5L29.1002 22.8C29.6002 23 30.2003 22.8 30.4003 22.4C30.5003 22.3 30.5002 22.1 30.5002 22V10C30.4002 9.6 30.3002 9.3 30.0002 9.1ZM28.5002 20.3L22.7003 17.3V14.6L28.5002 11.6V20.3Z" fill="#70A6A6"/>
<path d="M20.1002 22.8C20.0002 22.8 19.9002 22.9 19.8002 22.9H6.30023C5.80023 22.9 5.30023 22.5 5.30023 21.9V10C5.30023 9.5 5.70023 9 6.30023 9L4.80023 7.5C4.00023 8 3.40027 9 3.40027 10V21.9C3.40027 23.5 4.70023 24.9 6.30023 24.9H19.8002C20.5002 24.9 21.1002 24.7 21.5002 24.3L20.1002 22.8Z" fill="#70A6A6"/>
<path d="M20.4885 26.0885L3.38856 8.98854C2.88856 8.48854 2.88853 7.78854 3.28853 7.28854C3.68853 6.88854 4.48854 6.88854 4.98854 7.38854L22.0885 24.4885C22.5885 24.9885 22.5886 25.6885 22.1886 26.1885C21.6886 26.6885 20.9885 26.5885 20.4885 26.0885Z" fill="#70A6A6"/>
</svg>
