<svg width="24" height="24" viewBox="0 0 24 24" fill="none" xmlns="http://www.w3.org/2000/svg">
<path d="M12 2C6.45714 2 2 6.45714 2 12C2 17.5429 6.45714 22 12 22C17.5429 22 22 17.5429 22 12C22 6.45714 17.5429 2 12 2ZM12 20.4571C7.31429 20.4571 3.54286 16.6857 3.54286 12C3.54286 7.31429 7.31429 3.54286 12 3.54286C16.6857 3.54286 20.4571 7.31429 20.4571 12C20.4571 16.6857 16.6857 20.4571 12 20.4571Z" fill="#70A6A6"/>
<path d="M15.4285 14.3429L13.0857 12L15.4285 9.65718C15.7143 9.37146 15.7143 8.85718 15.4285 8.57146C15.1428 8.28575 14.6285 8.28575 14.3428 8.57146L12 10.9143L9.65712 8.57146C9.3714 8.28575 8.85712 8.28575 8.5714 8.57146C8.28569 8.85718 8.28569 9.37146 8.5714 9.65718L10.9143 12L8.5714 14.3429C8.28569 14.6286 8.28569 15.1429 8.5714 15.4286C8.85712 15.7143 9.3714 15.7143 9.65712 15.4286L12 13.0857L14.3428 15.4286C14.6285 15.7143 15.1428 15.7143 15.4285 15.4286C15.7143 15.1429 15.7143 14.6286 15.4285 14.3429Z" fill="#70A6A6"/>
</svg>
