<svg width="32" height="32" viewBox="0 0 32 32" fill="none" xmlns="http://www.w3.org/2000/svg">
<path d="M26.0176 3H4.98238C3.88106 3 3 3.88106 3 4.98238V25.0264C3 25.7974 3.44053 26.4581 4.10132 26.7885C4.43172 26.8987 4.65198 27.0088 4.98238 27.0088C5.42291 27.0088 5.86344 26.8987 6.19383 26.5683L9.60793 24.0352H26.0176C27.1189 24.0352 28 23.1542 28 22.0529V4.98238C28 3.88106 27.1189 3 26.0176 3ZM26.1278 22.0529C26.1278 22.163 26.0176 22.163 26.0176 22.163H9.60793C9.1674 22.163 8.72687 22.2731 8.39648 22.6035L4.98238 25.1366H4.87225C4.87225 25.0264 4.87225 25.0264 4.87225 25.0264V4.98238C4.87225 4.87225 4.98238 4.87225 4.98238 4.87225H26.0176C26.1278 4.87225 26.1278 4.98238 26.1278 4.98238V22.0529V22.0529Z" fill="#70A6A6"/>
</svg>
