<svg width="24" height="24" viewBox="0 0 24 24" fill="none" xmlns="http://www.w3.org/2000/svg">
<path d="M16.4 8.8C16.6857 9.08571 16.6857 9.6 16.4 9.88571L11.1429 15.1429C10.8571 15.4286 10.3429 15.4286 10.0571 15.1429L7.54286 12.6286C7.25714 12.3429 7.25714 11.8286 7.54286 11.5429C7.82857 11.2571 8.34286 11.2571 8.62857 11.5429L10.5714 13.4857L15.2571 8.8C15.6 8.51429 16.1143 8.51429 16.4 8.8ZM22 12C22 17.5429 17.5429 22 12 22C6.45714 22 2 17.5429 2 12C2 6.45714 6.45714 2 12 2C17.5429 2 22 6.45714 22 12ZM20.4571 12C20.4571 7.31429 16.6857 3.54286 12 3.54286C7.31429 3.54286 3.54286 7.31429 3.54286 12C3.54286 16.6857 7.31429 20.4571 12 20.4571C16.6857 20.4571 20.4571 16.6857 20.4571 12Z" fill="#70A6A6"/>
</svg>
