<svg width="24" height="24" viewBox="0 0 24 24" fill="none" xmlns="http://www.w3.org/2000/svg">
<path d="M18.875 19.5556H5.125C3.40234 19.5556 2 18.1594 2 16.4444V7.11111C2 5.39611 3.40234 4 5.125 4H18.875C20.5977 4 22 5.39611 22 7.11111V12.5556C22 12.9833 21.6484 13.3333 21.2188 13.3333C20.7891 13.3333 20.4375 12.9833 20.4375 12.5556V7.11111C20.4375 6.25167 19.7383 5.55556 18.875 5.55556H5.125C4.26172 5.55556 3.5625 6.25167 3.5625 7.11111V16.4444C3.5625 17.3039 4.26172 18 5.125 18H18.875C19.7383 18 20.4375 17.3039 20.4375 16.4444C20.4375 16.0167 20.7891 15.6667 21.2188 15.6667C21.6484 15.6667 22 16.0167 22 16.4444C22 18.1594 20.5977 19.5556 18.875 19.5556ZM10.2891 13.0222C9.96484 13.0222 9.67969 13.2283 9.56641 13.5356C9.36328 14.0917 8.83594 14.4844 8.20703 14.5C7.37109 14.5194 6.6875 13.8506 6.6875 13.0222V10.5606C6.6875 9.75167 7.32422 9.075 8.13672 9.05556C8.79297 9.04 9.35547 9.44833 9.56641 10.0239C9.67578 10.3272 9.96094 10.5294 10.2852 10.5294H10.3242C10.8477 10.5294 11.2188 10.0122 11.043 9.52222C10.6211 8.33611 9.47656 7.48444 8.14062 7.49611C6.48047 7.51556 5.125 8.91944 5.125 10.5722V12.9833C5.125 14.6517 6.46484 16.04 8.14062 16.0556C9.47656 16.0672 10.6211 15.2194 11.043 14.0333C11.2188 13.5394 10.8477 13.0222 10.3203 13.0222H10.2891ZM17.9453 13.0222C17.6211 13.0222 17.3359 13.2283 17.2227 13.5356C17.0195 14.0917 16.4922 14.4844 15.8633 14.5C15.0273 14.5194 14.3438 13.8506 14.3438 13.0222V10.5606C14.3438 9.75167 14.9805 9.075 15.793 9.05556C16.4492 9.04 17.0117 9.44833 17.2227 10.0239C17.332 10.3272 17.6172 10.5294 17.9414 10.5294H17.9805C18.5039 10.5294 18.875 10.0122 18.6992 9.52222C18.2773 8.33611 17.1328 7.48444 15.7969 7.49611C14.1367 7.51167 12.7812 8.91556 12.7812 10.5683V12.9794C12.7812 14.6478 14.1211 16.0361 15.7969 16.0517C17.1328 16.0633 18.2773 15.2156 18.6992 14.0294C18.875 13.5356 18.5039 13.0183 17.9766 13.0183H17.9453V13.0222Z" fill="#70A6A6"/>
</svg>
