<svg width="16" height="16" viewBox="0 0 16 16" fill="none" xmlns="http://www.w3.org/2000/svg">
<path fill-rule="evenodd" clip-rule="evenodd" d="M9.41416 7.99995L15.071 2.3431C15.4615 1.95257 15.4615 1.31941 15.071 0.928879C14.6805 0.538355 14.0473 0.538355 13.6568 0.928879L7.99995 6.58574L2.34309 0.928879C1.95257 0.538355 1.3194 0.538355 0.92888 0.928879C0.538355 1.31941 0.538355 1.95257 0.92888 2.3431L6.58573 7.99995L0.92888 13.6568C0.538355 14.0473 0.538355 14.6804 0.92888 15.071C1.3194 15.4615 1.95257 15.4615 2.34309 15.071L7.99995 9.41416L13.6568 15.071C14.0473 15.4615 14.6805 15.4615 15.071 15.071C15.4615 14.6804 15.4615 14.0473 15.071 13.6568L9.41416 7.99995Z" fill="#70A6A6"/>
</svg>
