<svg width="24" height="24" viewBox="0 0 24 24" fill="none" xmlns="http://www.w3.org/2000/svg">
<path d="M18.5588 17.3235L13.7353 12.5L18.5588 7.67647C19.1471 7.08823 19.1471 6.02941 18.5588 5.44118C17.9706 4.85294 16.9118 4.85294 16.3235 5.44118L11.5 10.2647L6.67647 5.44118C6.08823 4.85294 5.02941 4.85294 4.44118 5.44118C3.85294 6.02941 3.85294 7.08823 4.44118 7.67647L9.26471 12.5L4.44118 17.3235C3.85294 17.9118 3.85294 18.9706 4.44118 19.5588C5.02941 20.1471 6.08823 20.1471 6.67647 19.5588L11.5 14.7353L16.3235 19.5588C16.9118 20.1471 17.9706 20.1471 18.5588 19.5588C19.1471 18.9706 19.1471 17.9118 18.5588 17.3235Z" fill="#70A6A6"/>
</svg>
