<svg width="24" height="24" viewBox="0 0 24 24" fill="none" xmlns="http://www.w3.org/2000/svg">
<path d="M14.1 7.30005H7.4C5 7.30005 3 9.30005 3 11.7V17C3 19.4 5 21.4 7.4 21.4H14.2C16.6 21.4 18.6 19.4 18.6 17V11.7C18.5 9.30005 16.5 7.30005 14.1 7.30005ZM16.8 11.7V17C16.8 18.5 15.6 19.7 14.1 19.7H7.4C5.9 19.7 4.7 18.5 4.7 17V11.7C4.7 10.2 5.9 9.00005 7.4 9.00005H14.2C15.6 9.00005 16.8 10.2 16.8 11.7Z" fill="#70A6A6"/>
<path d="M16.9 3H10.2C8.79997 3 7.39997 3.7 6.59997 4.9C6.29997 5.3 6.39997 5.8 6.79997 6.1C6.99997 6.2 7.19997 6.2 7.39997 6.2C7.69997 6.2 7.89997 6 7.99997 5.9C8.49997 5.2 9.29997 4.8 10.2 4.8H17C18.5 4.8 19.7 6 19.7 7.5V14.6C19.7 15.1 20.1 15.5 20.6 15.5C21.1 15.5 21.5 15.1 21.5 14.6V7.4C21.3 5 19.3 3 16.9 3Z" fill="#70A6A6"/>
</svg>
