<svg width="24" height="24" viewBox="0 0 24 24" fill="none" xmlns="http://www.w3.org/2000/svg">
<path d="M17.4375 18.4H5.6375C5.3375 18.4 5.0375 18.2 4.9375 17.9L2.0375 8.6C1.9375 8.3 2.0375 8 2.3375 7.8C2.5375 7.6 2.8375 7.6 3.1375 7.7L7.2375 9.7L11.0375 5.3C11.1375 5.1 11.3375 5 11.5375 5C11.7375 5 11.9375 5.1 12.1375 5.3L15.9375 9.7L20.0375 7.7C20.3375 7.6 20.6375 7.6 20.8375 7.8C21.0375 8 21.1375 8.3 21.0375 8.6L18.2375 17.9C18.1375 18.1 17.8375 18.4 17.4375 18.4ZM6.1375 16.9H16.9375L19.1375 9.8L16.1375 11.3C15.8375 11.4 15.4375 11.4 15.2375 11.1L11.5375 6.9L7.9375 11.1C7.7375 11.3 7.3375 11.4 7.0375 11.2L4.0375 9.7L6.1375 16.9Z" fill="#70A6A6"/>
</svg>
