<svg width="28" height="28" viewBox="0 0 28 28" fill="none" xmlns="http://www.w3.org/2000/svg">
<path d="M21.673 18.617V6.30506C21.673 5.03283 20.6337 4 19.3536 4C18.1973 4 17.2751 4.82079 17.0686 5.8673L17.0135 5.9015C14.3363 7.67989 11.2185 8.61696 7.99747 8.61696H2.3194C1.03926 8.61696 0 9.64979 0 10.922V14C0 15.2791 1.03926 16.3119 2.3194 16.3119H3.09024V21.6949C3.09024 22.9672 4.1295 24 5.40965 24C6.68979 24 7.72905 22.9672 7.72905 21.6949V19.3899H8.49989C9.78003 19.3899 10.8193 18.357 10.8193 17.0848V16.565C13.0217 16.948 15.1209 17.7825 16.9998 19.0342L17.0548 19.0684C17.2613 20.1354 18.2111 20.9357 19.3329 20.9357C20.6337 20.922 21.673 19.8892 21.673 18.617ZM2.3194 14.7729C1.89269 14.7729 1.54856 14.4309 1.54856 14.0068V10.9289C1.54856 10.5048 1.89269 10.1628 2.3194 10.1628H7.73593V14.7798C7.21286 14.7729 2.86312 14.7729 2.3194 14.7729ZM6.19425 21.6949C6.19425 22.119 5.85013 22.461 5.42341 22.461C4.9967 22.461 4.64569 22.119 4.65257 21.6949V16.3119H6.20113L6.19425 21.6949ZM7.74281 16.3051C8.07317 16.3051 8.56871 16.2982 9.29138 16.3529V17.0711C9.29138 17.4952 8.94725 17.8372 8.52054 17.8372H7.7497L7.74281 16.3051ZM9.29138 14.814V10.1081C12.0237 9.90971 14.6666 9.09576 17.0342 7.71409V17.2148C14.6666 15.8263 12.0237 15.0123 9.29138 14.814ZM19.3536 19.383C18.9269 19.383 18.5828 19.041 18.5828 18.617V6.30506C18.5828 5.88098 18.9269 5.53899 19.3536 5.53899C19.7803 5.53899 20.1244 5.88098 20.1244 6.30506V18.617C20.1244 19.041 19.7803 19.383 19.3536 19.383Z" fill="#70A6A6"/>
<path d="M6.19431 12.4611C6.19431 12.037 5.85018 11.6882 5.42347 11.695H3.87491C3.44819 11.695 3.10406 12.037 3.10406 12.4611C3.10406 12.8852 3.44819 13.2272 3.87491 13.2272H5.42347C5.8433 13.234 6.19431 12.8852 6.19431 12.4611Z" fill="#70A6A6"/>
<path d="M25.362 7.6388C25.0592 7.33785 24.5705 7.33785 24.2677 7.6388L23.1734 8.72636C22.8706 9.02732 22.8706 9.51295 23.1734 9.81391C23.4762 10.1149 23.9649 10.1149 24.2677 9.81391L25.362 8.72636C25.6648 8.4254 25.6648 7.93976 25.362 7.6388Z" fill="#70A6A6"/>
<path d="M25.362 16.3394L24.2677 15.2518C23.9649 14.9509 23.4762 14.9509 23.1734 15.2518C22.8706 15.5528 22.8706 16.0384 23.1734 16.3394L24.2677 17.427C24.5705 17.7279 25.0592 17.7279 25.362 17.427C25.6648 17.126 25.6648 16.6404 25.362 16.3394Z" fill="#70A6A6"/>
<path d="M27.7778 12.5295C27.7778 12.1054 27.4336 11.7566 27.0069 11.7634H24.8183C24.3916 11.7634 24.0475 12.1054 24.0475 12.5295C24.0475 12.9536 24.3916 13.2956 24.8183 13.2956H27.0069C27.4336 13.3024 27.7778 12.9536 27.7778 12.5295Z" fill="#70A6A6"/>
</svg>
