<svg width="24" height="24" viewBox="0 0 24 24" fill="none" xmlns="http://www.w3.org/2000/svg">
<path d="M20.5154 5.425L17.6154 2.525C16.9154 1.825 15.8154 1.825 15.1154 2.525C14.6154 3.025 3.91543 13.725 3.71543 14.025C3.61543 14.125 3.61543 14.225 3.51543 14.325L2.01543 20.325C1.91543 20.825 2.31543 21.225 2.81543 21.125C3.11543 21.025 8.51543 19.725 8.81543 19.625C8.91543 19.625 9.01543 19.525 9.11543 19.425C9.31543 19.125 19.9154 8.425 20.5154 7.925C21.2154 7.225 21.2154 6.125 20.5154 5.425ZM5.11543 19.125L3.81543 17.825L4.31543 15.625L7.21543 18.525L5.11543 19.125ZM3.51543 19.525L3.61543 19.325L3.81543 19.525H3.51543ZM8.61543 18.025L5.01543 14.425L14.3154 5.025L18.0154 8.725L8.61543 18.025ZM19.6154 7.025L18.9154 7.725L15.3154 4.125L16.0154 3.425C16.2154 3.225 16.5154 3.225 16.7154 3.425L19.6154 6.325C19.8154 6.525 19.8154 6.825 19.6154 7.025Z" fill="#70A6A6"/>
</svg>
