<svg width="24" height="24" viewBox="0 0 24 24" fill="none" xmlns="http://www.w3.org/2000/svg">
<path d="M21.2 11.4L21.1 11.2L19.6 9.50002C19.3 9.20002 18.9 9.20002 18.6 9.50002C18.3 9.80002 18.3 10.2 18.6 10.5L19.7 11.7L18.6 12.9C18.5 13 18.4 13.2 18.4 13.4C18.4 13.6 18.5 13.8 18.6 13.9C18.7 14 18.9 14.1 19.1 14.1C19.3 14.1 19.4 14 19.6 13.9C19.6 13.9 19.6 13.9 19.7 13.8L21.3 12.1L21.4 11.9C21.3 11.8 21.3 11.6 21.2 11.4Z" fill="#70A6A6"/>
<path d="M4.9 10C4.9 9.80001 4.8 9.60001 4.7 9.50001C4.4 9.20001 4 9.30001 3.7 9.50001L2.2 11.2L2 11.5C2 11.6 2 11.8 2.1 12L2.2 12.2L3.7 13.9C3.8 14 4 14 4.2 14C4.4 14 4.6 13.9 4.7 13.8C4.9 13.5 5 13.2 4.7 12.9L3.6 11.7L4.7 10.5C4.9 10.4 4.9 10.2 4.9 10Z" fill="#70A6A6"/>
<path d="M10 4.9C10.2 4.9 10.3 4.8 10.5 4.7L11.7 3.6L12.9 4.7C13 4.8 13.2 4.9 13.4 4.9C13.6 4.9 13.8 4.8 13.9 4.6C14 4.3 14 4 13.8 3.7L12.1 2.1C12 2.1 12 2.1 11.9 2H11.8C11.7 2 11.6 2 11.5 2H11.4H11.3C11.3 2 11.2 2 11.2 2.1L11.1 2.2L9.50002 3.7C9.20002 4 9.20002 4.4 9.50002 4.7C9.60002 4.8 9.80002 4.9 10 4.9Z" fill="#70A6A6"/>
<path d="M12.8 18.5L11.6 19.6L10.4 18.5C10.3 18.4 10.1 18.3 9.9 18.3C9.7 18.3 9.5 18.4 9.4 18.6C9.2 18.9 9.2 19.3 9.4 19.5L11.1 21L11.2 21.1H11.3C11.4 21.1 11.5 21.2001 11.6 21.2001C11.7 21.2001 11.8 21.2 11.9 21.1C12 21.1 12 21 12 21L13.7 19.5C13.8 19.4 13.9 19.2 13.9 19C13.9 18.8 13.8 18.6 13.7 18.5C13.5 18.3 13.1 18.3 12.8 18.5Z" fill="#70A6A6"/>
</svg>
