<svg width="24" height="24" viewBox="0 0 24 24" fill="none" xmlns="http://www.w3.org/2000/svg">
<path d="M20.1347 5H3.86528C2.82902 5 2 5.82353 2 6.85294V17.1471C2 18.1765 2.82902 19 3.86528 19H20.1347C21.171 19 22 18.1765 22 17.1471V6.85294C22 5.82353 21.0674 5 20.1347 5ZM15.886 12L20.5492 7.36765V16.6324L15.886 12ZM16.4041 9.52941C14.8497 11.0735 13.2953 12.6176 13.0881 12.7206C12.7772 13.0294 12.3627 13.2353 11.9482 13.2353C11.5337 13.2353 11.1192 13.0294 10.8083 12.7206C10.7047 12.6176 5.62694 7.57353 4.38342 6.33824H19.513C18.9948 6.95588 17.6477 8.19118 16.4041 9.52941ZM9.04663 13.0294L9.77202 13.75C10.3938 14.2647 11.1192 14.5735 11.9482 14.5735C12.7772 14.5735 13.5026 14.2647 14.1244 13.6471L14.8497 12.9265L19.513 17.5588H4.38342L9.04663 13.0294ZM8.11399 12L3.45078 16.6324V7.36765L8.11399 12Z" fill="#70A6A6"/>
</svg>
