<svg width="24" height="24" viewBox="0 0 24 24" fill="none" xmlns="http://www.w3.org/2000/svg">
<path d="M6 10.672C6 10.3009 6.30086 10 6.672 10H16.328C16.6991 10 17 10.3009 17 10.672V10.672C17 11.0431 16.6991 11.344 16.328 11.344H6.672C6.30086 11.344 6 11.0431 6 10.672V10.672ZM6.65633 14.656C6.29385 14.656 6 14.3621 6 13.9997V13.9997C6 13.6372 6.29385 13.3433 6.65633 13.3433H16.3437C16.7061 13.3433 17 13.6372 17 13.9997V13.9997C17 14.3621 16.7061 14.656 16.3437 14.656H6.65633ZM6.672 18C6.30086 18 6 17.6991 6 17.328V17.328C6 16.9569 6.30086 16.656 6.672 16.656H13.328C13.6991 16.656 14 16.9569 14 17.328V17.328C14 17.6991 13.6991 18 13.328 18H6.672Z" fill="#70A6A6"/>
</svg>
