<svg width="16" height="16" viewBox="0 0 16 16" fill="none" xmlns="http://www.w3.org/2000/svg">
<path fill-rule="evenodd" clip-rule="evenodd" d="M7.99998 14.6667C4.31808 14.6667 1.33331 11.682 1.33331 8.00004C1.33331 4.31814 4.31808 1.33337 7.99998 1.33337C11.6819 1.33337 14.6667 4.31814 14.6667 8.00004C14.6667 11.682 11.6819 14.6667 7.99998 14.6667ZM7.33331 4.66673C7.33331 4.29854 7.63178 4.00006 7.99998 4.00006C8.36817 4.00006 8.66664 4.29854 8.66664 4.66673V8.00006C8.66664 8.36825 8.36817 8.66673 7.99998 8.66673C7.63178 8.66673 7.33331 8.36825 7.33331 8.00006V4.66673ZM7.99998 10.0001C7.63179 10.0001 7.33331 10.2985 7.33331 10.6667C7.33331 11.0349 7.63179 11.3334 7.99998 11.3334C8.36816 11.3334 8.66664 11.0349 8.66664 10.6667C8.66664 10.2985 8.36816 10.0001 7.99998 10.0001Z" fill="#70A6A6"/>
</svg>
