<svg width="32" height="32" viewBox="0 0 32 32" fill="none" xmlns="http://www.w3.org/2000/svg">
<path d="M26.051 9.80441H20.2882V5.85145C20.2882 3.95346 19.724 2.58348 18.6029 1.76292C16.8462 0.471428 14.4468 1.19923 14.3468 1.23491C13.9398 1.36334 13.6613 1.74151 13.6613 2.16963V6.93602C13.6613 10.4609 9.50523 11.6881 9.33384 11.7381C9.31956 11.7452 9.31242 11.7452 9.30528 11.7523L8.83397 11.9022C8.29839 11.3956 7.57715 11.0888 6.79163 11.0888H4.98495C3.33537 11.0745 2 12.4088 2 14.0571V24.3105C2 25.9516 3.33537 27.293 4.98495 27.293H6.78449C7.54144 27.293 8.24126 27.0076 8.7697 26.5367C9.52665 27.4358 10.6549 28.0066 11.9189 28.0066H23.5945C26.3009 28.0066 28.1005 26.5224 28.4147 24.0393L29.8643 14.9347L29.9429 14.4424C29.9786 14.214 30 13.9786 30 13.7431C29.9929 11.574 28.2219 9.80441 26.051 9.80441ZM7.80566 24.3105C7.80566 24.8742 7.34864 25.3308 6.78449 25.3308H4.98495C4.42081 25.3308 3.96378 24.8742 3.96378 24.3105V14.0571C3.96378 13.4934 4.42081 13.0367 4.98495 13.0367H6.78449C7.34864 13.0367 7.80566 13.4934 7.80566 14.0571V24.3105ZM28.0077 14.1355L26.4795 23.7468C26.4795 23.7611 26.4723 23.7682 26.4723 23.7825C26.4009 24.339 26.201 26.0515 23.5945 26.0515H11.9118C10.7263 26.0515 9.7623 25.0882 9.7623 23.9038V14.0571C9.7623 13.9286 9.74802 13.793 9.73374 13.6646L9.87656 13.6218C10.2907 13.5005 15.618 11.8665 15.618 6.93602V2.97592C16.1821 2.91884 16.9248 2.96165 17.4461 3.34696C18.0316 3.78221 18.3244 4.61704 18.3244 5.85145V10.7819C18.3244 11.3242 18.7671 11.7666 19.3099 11.7666H26.051C27.1507 11.7666 28.0362 12.6585 28.0362 13.7502C28.0362 13.8715 28.0219 14 28.0077 14.1355Z" fill="#70A6A6"/>
</svg>
