<svg width="32" height="32" viewBox="0 0 32 32" fill="none" xmlns="http://www.w3.org/2000/svg">
<path d="M3.36794 31.0002C2.68397 31.0002 2 30.3162 2 29.6323V21.7666C2 21.0826 2.68397 20.3987 3.36794 20.3987C4.0519 20.3987 4.73587 21.0826 4.73587 21.7666V29.6323C4.73587 30.4872 4.22289 31.0002 3.36794 31.0002Z" fill="#70A6A6"/>
<path d="M9.86561 31C9.18164 31 8.49768 30.316 8.49768 29.6321V16.8077C8.49768 16.1238 9.18164 15.4398 9.86561 15.4398C10.5496 15.4398 11.2335 16.1238 11.2335 16.8077V29.6321C11.2335 30.487 10.5496 31 9.86561 31Z" fill="#70A6A6"/>
<path d="M16.1923 31.0001C15.5083 31.0001 14.8243 30.3161 14.8243 29.6322V13.5589C14.8243 12.875 15.5083 12.191 16.1923 12.191C16.8762 12.191 17.5602 12.875 17.5602 13.5589V29.6322C17.5602 30.4871 17.0472 31.0001 16.1923 31.0001Z" fill="#70A6A6"/>
<path d="M22.69 31C22.006 31 21.322 30.316 21.322 29.6321V8.25817C21.322 7.5742 22.006 6.89026 22.69 6.89026C23.3739 6.89026 24.0579 7.5742 24.0579 8.25817V29.6321C24.0579 30.487 23.3739 31 22.69 31Z" fill="#70A6A6"/>
<path d="M29.1876 31C28.5037 31 27.8197 30.3161 27.8197 29.6321V1.58947C27.8197 0.905502 28.5037 0.221558 29.1876 0.221558C29.8716 0.221558 30.5556 0.905502 30.5556 1.58947V29.6321C30.5556 30.487 29.8716 31 29.1876 31Z" fill="#70A6A6"/>
</svg>
