<svg width="32" height="32" viewBox="0 0 32 32" fill="none" xmlns="http://www.w3.org/2000/svg">
<g clip-path="url(#clip0)">
<path d="M8.4207 21.805C9.21471 21.82 9.89387 21.5703 10.3883 21.0759C10.8776 20.5865 11.1423 19.9024 11.1423 19.0934L11.1473 16.5715C11.3071 16.5216 11.4669 16.4716 11.6167 16.4217C11.8315 16.3468 12.0362 16.2819 12.221 16.2369C14.1536 15.8025 16.206 15.7076 18.5032 15.9473C19.6318 16.0771 20.5007 16.2769 21.2847 16.5715C21.2547 17.2007 21.2647 17.81 21.2647 18.4092C21.2647 18.629 21.2697 18.8637 21.2697 19.0834C21.2697 20.7613 22.3584 21.85 24.0363 21.85L26.2136 21.85C26.4633 21.85 26.7129 21.85 26.9626 21.8599C27.452 21.8699 27.9564 21.8749 28.4558 21.8549C29.2348 21.845 29.904 21.5853 30.3884 21.1009C30.8778 20.6115 31.1424 19.9373 31.1574 19.1533L31.1574 19.1333L31.1474 16.4067C31.1524 15.383 30.8178 14.4691 30.1587 13.6801C29.085 12.4167 27.6568 11.6776 26.683 11.2232C24.286 10.1245 21.7042 9.47035 18.5281 9.18071C14.6929 8.84113 10.9326 9.29557 7.36202 10.539C6.0087 11.0234 4.26587 11.7375 2.80768 13.0159C2.71779 13.0958 2.62791 13.1757 2.548 13.2556C1.62415 14.1795 1.17971 15.2831 1.22964 16.5515C1.23464 16.5665 1.22964 16.5715 1.23464 16.5865C1.27459 17.0459 1.2646 17.5153 1.25961 18.0097C1.25461 18.3443 1.24463 18.6939 1.25461 19.0434C1.2696 19.8474 1.53926 20.5366 2.03364 21.031C2.52803 21.5254 3.21218 21.79 4.01618 21.785L8.4207 21.805ZM2.78771 19.0285C2.7927 19.0235 2.78771 19.0185 2.78771 19.0285C2.77272 18.7039 2.78271 18.3943 2.78771 18.0497C2.79769 17.5403 2.80269 17.016 2.75774 16.4816C2.73277 15.6477 3.00244 14.9685 3.62666 14.3443C3.68659 14.2844 3.75151 14.2194 3.81643 14.1645C5.07986 13.0509 6.64291 12.4167 7.86639 11.9822C11.2222 10.8137 14.7578 10.3842 18.3833 10.7038C21.3846 10.9885 23.8116 11.5977 26.0438 12.6214C27.4071 13.2457 28.3209 13.8799 28.9951 14.6739C29.4246 15.1832 29.6293 15.7475 29.6343 16.4117V19.1383C29.6243 19.5179 29.5145 19.8275 29.3097 20.0322C29.06 20.2819 28.7055 20.3368 28.4458 20.3368L28.4258 20.3368C27.9514 20.3518 27.487 20.3468 26.9926 20.3418C26.7379 20.3368 26.4882 20.3368 26.2236 20.3318L24.0463 20.3318C23.1973 20.3318 22.8078 19.9423 22.8078 19.0934C22.8078 18.8637 22.8078 18.634 22.8078 18.4042C22.7978 17.7251 22.7978 17.0859 22.8378 16.4267C22.8378 16.4067 22.8428 16.4017 22.8378 16.3867C22.8378 15.6976 22.4383 15.4279 22.1386 15.2681L22.0937 15.2432C21.1199 14.8387 20.0762 14.594 18.6979 14.4242L18.6879 14.4242C16.226 14.1695 14.0038 14.2744 11.9163 14.7438C11.6467 14.8037 11.397 14.8836 11.1573 14.9635C10.9426 15.0384 10.7378 15.1033 10.553 15.1483C10.5281 15.1533 10.5031 15.1583 10.4731 15.1683C10.2684 15.2332 10.1086 15.3331 9.97876 15.4629C9.64917 15.7925 9.64917 16.212 9.64418 16.3468L9.6292 19.0884C9.6292 19.3581 9.57926 19.7376 9.32458 19.9923C9.07489 20.242 8.72033 20.2869 8.46065 20.2769H4.04614C3.22217 20.2819 2.80269 19.8624 2.78771 19.0285Z" fill="#70A6A6"/>
</g>
<defs>
<clipPath id="clip0">
<rect width="32" height="32" fill="white"/>
</clipPath>
</defs>
</svg>
