<svg width="32" height="32" viewBox="0 0 32 32" fill="none" xmlns="http://www.w3.org/2000/svg">
<path d="M16 32C7.163 32 0 24.837 0 16C0 7.163 7.163 0 16 0C24.837 0 32 7.163 32 16C32 24.837 24.837 32 16 32ZM15.042 20V12.006H13.346V15.23H9.696V12.006H8V20H9.696V16.659H13.346V20H15.042ZM17.008 12V20H20.198C22.624 20 24 18.543 24 15.945C24 13.441 22.607 12 20.198 12H17.008ZM18.704 13.429V18.57H19.928C21.427 18.57 22.27 17.661 22.27 15.972C22.27 14.354 21.4 13.429 19.928 13.429H18.704Z" fill="#70A6A6"/>
</svg>
