<svg width="24" height="24" viewBox="0 0 24 24" fill="none" xmlns="http://www.w3.org/2000/svg">
<path d="M19.5902 9.09531H19.5378V9.03945C19.5378 4.60938 16.1568 1 11.998 1C7.83921 1 4.45416 4.60938 4.45416 9.04375V9.09961H4.40177C3.07999 9.09531 2 10.2469 2 11.6605V15.3945C2 16.8082 3.07999 17.9555 4.40177 17.9555H6.29176C6.71489 17.9555 7.05743 17.5902 7.05743 17.1391V9.91602C7.05743 9.46484 6.71489 9.09961 6.29176 9.09961H5.98952V9.04375C5.98952 5.51172 8.68547 2.63711 11.998 2.63711C15.3105 2.63711 18.0064 5.51172 18.0064 9.04375V9.09961H17.7002C17.2771 9.09961 16.9345 9.46484 16.9345 9.91602V17.1391C16.9345 17.5902 17.2771 17.9555 17.7002 17.9555H18.3853C18.087 18.6902 17.3979 19.2102 16.6 19.2102H15.1896C14.8551 17.9684 13.7832 17.0574 12.5098 17.0574C10.9744 17.0574 9.72517 18.3895 9.72517 20.0266C9.72517 21.6637 10.9865 23 12.538 23C13.3036 23 14.0411 22.6691 14.561 22.0848C14.8793 21.7281 15.1009 21.3027 15.2138 20.843H16.6041C18.2684 20.843 19.6667 19.5883 20.0052 17.9168C21.1376 17.7105 22 16.6578 22 15.3902V11.6562C21.9919 10.2469 20.916 9.09531 19.5902 9.09531ZM5.53012 16.3227H4.40177C3.91416 16.3227 3.53133 15.9145 3.53133 15.3945V11.6605C3.53133 11.1406 3.91416 10.7324 4.40177 10.7324H5.52609V16.3227H5.53012ZM13.4487 20.9547C13.215 21.2125 12.8845 21.3629 12.534 21.3629C11.8408 21.3629 11.2565 20.7527 11.2565 20.0266C11.2565 19.2918 11.8166 18.6902 12.5098 18.6902C13.1989 18.6902 13.763 19.2918 13.763 20.0266C13.763 20.0395 13.763 20.0523 13.763 20.0652C13.7751 20.3961 13.6663 20.7141 13.4487 20.9547ZM20.4606 15.3945C20.4606 15.9145 20.0778 16.3227 19.5902 16.3227H18.4658V10.7324H19.5902C20.0778 10.7324 20.4606 11.1406 20.4606 11.6605V15.3945Z" fill="#70A6A6"/>
</svg>
