<svg width="24" height="24" viewBox="0 0 24 24" fill="none" xmlns="http://www.w3.org/2000/svg">
<path d="M12 2C6.48 2 2 6.48 2 12C2 17.52 6.48 22 12 22C17.52 22 22 17.52 22 12C22 6.48 17.52 2 12 2ZM12 20.48C7.36 20.48 3.6 16.72 3.6 12.08C3.6 7.44 7.36 3.68 12 3.68C16.64 3.68 20.4 7.44 20.4 12.08C20.48 16.64 16.64 20.48 12 20.48ZM15.12 10.16C15.12 11.6 14.16 12.8 12.8 13.2V14.48C12.8 14.88 12.48 15.28 12 15.28C11.6 15.28 11.2 14.96 11.2 14.48V12.56C11.2 12.16 11.52 11.76 12 11.76C12.88 11.76 13.6 11.04 13.6 10.16C13.6 9.28 12.88 8.56 12 8.56C11.12 8.56 10.4 9.28 10.4 10.16C10.4 10.56 10.08 10.96 9.6 10.96C9.2 10.96 8.8 10.64 8.8 10.16C8.8 8.4 10.24 7.04 11.92 7.04C13.76 7.04 15.12 8.4 15.12 10.16ZM12.96 16.8C12.96 17.36 12.56 17.76 12 17.76C11.44 17.76 11.04 17.36 11.04 16.8C11.04 16.24 11.44 15.84 12 15.84C12.56 15.84 12.96 16.24 12.96 16.8Z" fill="#70A6A6"/>
</svg>
