<svg width="32" height="32" viewBox="0 0 32 32" fill="none" xmlns="http://www.w3.org/2000/svg">
<path fill-rule="evenodd" clip-rule="evenodd" d="M29 15.5C29 8.04422 22.9558 2 15.5 2C8.04404 2 2 8.04422 2 15.5C2 22.9558 8.04404 29 15.4999 29C22.9558 29 29 22.9558 29 15.5ZM4.69994 15.5C4.69994 9.53523 9.53525 4.69993 15.5 4.69993C21.4646 4.69994 26.3 9.53523 26.3 15.5C26.3 21.4647 21.4646 26.3 15.4999 26.3C9.53525 26.3 4.69994 21.4646 4.69994 15.5ZM16.85 22.2499C16.85 22.9955 16.2455 23.6 15.4999 23.6C14.7544 23.6 14.1499 22.9955 14.1499 22.2499L14.1499 15.4999C14.1499 14.7544 14.7544 14.1499 15.4999 14.1499C16.2455 14.1499 16.85 14.7544 16.85 15.4999L16.85 22.2499ZM15.4999 11.4501C16.2455 11.4501 16.85 10.8456 16.85 10.1C16.85 9.3544 16.2455 8.74994 15.5 8.74994C14.7544 8.74994 14.1499 9.3544 14.1499 10.1C14.1499 10.8456 14.7544 11.4501 15.4999 11.4501Z" fill="#70A6A6"/>
</svg>
