<svg width="32" height="32" viewBox="0 0 32 32" fill="none" xmlns="http://www.w3.org/2000/svg">
<path d="M16 32C7.163 32 0 24.837 0 16C0 7.163 7.163 0 16 0C24.837 0 32 7.163 32 16C32 24.837 24.837 32 16 32ZM14.762 18.459H11.251V12.006H9.599V19.897H14.761V18.459H14.762ZM16.261 12V19.897H19.367C21.73 19.897 23.069 18.459 23.069 15.894C23.069 13.422 21.713 12 19.367 12H16.261ZM17.913 13.411V18.486H19.105C20.565 18.486 21.385 17.589 21.385 15.921C21.385 14.324 20.537 13.411 19.105 13.411H17.913Z" fill="#70A6A6"/>
</svg>
