<svg width="32" height="32" viewBox="0 0 32 32" fill="none" xmlns="http://www.w3.org/2000/svg">
<path d="M14.02 21.72L11.49 24.25C10.94 24.8 10.28 25.02 9.62 25.02C8.96 25.02 8.08 24.8 7.64 24.25C6.65 23.26 6.65 21.5 7.64 20.51L12.81 15.34C13.36 14.79 14.02 14.57 14.68 14.57C15.34 14.57 16.11 14.9 16.55 15.34C16.88 15.67 17.54 15.67 17.98 15.34C18.31 15.01 18.31 14.35 17.98 13.91C16.22 12.15 13.25 12.15 11.49 13.91L6.32 19.08C4.56 20.84 4.56 23.81 6.32 25.57C7.09 26.56 8.3 27 9.51 27C10.72 27 11.93 26.56 12.81 25.68L15.34 23.15C15.67 22.82 15.67 22.16 15.34 21.72C15.01 21.28 14.35 21.28 14.02 21.72Z" fill="#70A6A6"/>
<path d="M25.57 6.32C24.69 5.44 23.48 5 22.27 5C21.06 5 19.85 5.44 18.97 6.32L15.89 9.4C15.56 9.84 15.56 10.5 15.89 10.83C16.22 11.16 16.88 11.16 17.32 10.83L20.4 7.75C21.39 6.76 23.15 6.76 24.14 7.75C24.69 8.3 24.91 8.96 24.91 9.62C24.91 10.28 24.69 11.05 24.14 11.49L18.42 17.21C17.87 17.76 17.21 17.98 16.55 17.98C15.89 17.98 15.12 17.65 14.68 17.21C14.35 16.88 13.69 16.88 13.25 17.21C13.03 17.43 12.92 17.65 12.92 17.87C12.92 18.09 13.03 18.42 13.25 18.53C14.13 19.41 15.34 19.85 16.55 19.85C17.76 19.85 18.97 19.41 19.85 18.53L25.57 12.81C27.33 11.05 27.33 8.19 25.57 6.32Z" fill="#70A6A6"/>
</svg>
