<svg width="24" height="24" viewBox="0 0 24 24" fill="none" xmlns="http://www.w3.org/2000/svg">
<path d="M5 7.008C5 6.4513 5.4513 6 6.008 6H17.992C18.5487 6 19 6.4513 19 7.008V7.008C19 7.5647 18.5487 8.016 17.992 8.016H6.008C5.4513 8.016 5 7.5647 5 7.008V7.008ZM5.9845 12.984C5.44078 12.984 5 12.5432 5 11.9995V11.9995C5 11.4558 5.44078 11.015 5.9845 11.015H18.0155C18.5592 11.015 19 11.4558 19 11.9995V11.9995C19 12.5432 18.5592 12.984 18.0155 12.984H5.9845ZM6.008 18C5.4513 18 5 17.5487 5 16.992V16.992C5 16.4353 5.4513 15.984 6.008 15.984H17.992C18.5487 15.984 19 16.4353 19 16.992V16.992C19 17.5487 18.5487 18 17.992 18H6.008Z" fill="#70A6A6"/>
</svg>
