<svg width="24" height="24" viewBox="0 0 24 24" fill="none" xmlns="http://www.w3.org/2000/svg">
<path d="M20.1828 1H2.6521C1.73427 1 1 1.73427 1 2.6521V19.3567C1 19.9992 1.36713 20.5499 1.91784 20.8252C2.19319 20.917 2.37675 21.0088 2.6521 21.0088C3.01924 21.0088 3.38637 20.917 3.66172 20.6417L6.50701 18.5307H20.1828C21.1006 18.5307 21.8349 17.7964 21.8349 16.8785V2.6521C21.8349 1.73427 21.1006 1 20.1828 1ZM20.2745 16.8785C20.2745 16.9703 20.1828 16.9703 20.1828 16.9703H6.50701C6.13988 16.9703 5.77274 17.0621 5.49739 17.3375L2.6521 19.4485H2.56032C2.56032 19.3567 2.56032 19.3567 2.56032 19.3567V2.6521C2.56032 2.56032 2.6521 2.56032 2.6521 2.56032H20.1828C20.2745 2.56032 20.2745 2.6521 20.2745 2.6521V16.8785V16.8785Z" fill="#70A6A6"/>
<path d="M5.77272 6.59879H11.4633C11.9222 6.59879 12.1976 6.23165 12.1976 5.86452C12.1976 5.49738 11.8304 5.13025 11.4633 5.13025H5.77272C5.3138 5.13025 5.03845 5.49738 5.03845 5.86452C5.03845 6.23165 5.3138 6.59879 5.77272 6.59879Z" fill="#70A6A6"/>
<path d="M16.695 5.03845H14.125C13.6661 5.03845 13.3908 5.40559 13.3908 5.77272C13.3908 6.13985 13.7579 6.50699 14.125 6.50699H16.695C17.1539 6.50699 17.4293 6.13985 17.4293 5.77272C17.4293 5.40559 17.1539 5.03845 16.695 5.03845Z" fill="#70A6A6"/>
<path d="M16.695 8.80164H5.77272C5.3138 8.80164 5.03845 9.16877 5.03845 9.5359C5.03845 9.90304 5.40559 10.2702 5.77272 10.2702H16.695C17.1539 10.2702 17.4292 9.90304 17.4292 9.5359C17.4292 9.16877 17.1539 8.80164 16.695 8.80164Z" fill="#70A6A6"/>
<path d="M16.695 12.5647H11.188C10.7291 12.5647 10.4537 12.9318 10.4537 13.299C10.4537 13.6661 10.8208 14.0332 11.188 14.0332H16.695C17.1539 14.0332 17.4293 13.6661 17.4293 13.299C17.4293 12.9318 17.1539 12.5647 16.695 12.5647Z" fill="#70A6A6"/>
<path d="M8.61801 12.5647H5.77272C5.3138 12.5647 5.03845 12.9318 5.03845 13.299C5.03845 13.6661 5.40559 14.0332 5.77272 14.0332H8.61801C9.07693 14.0332 9.35228 13.6661 9.35228 13.299C9.35228 12.9318 8.98514 12.5647 8.61801 12.5647Z" fill="#70A6A6"/>
</svg>
