<svg width="38" height="12" viewBox="0 0 38 12" fill="none" xmlns="http://www.w3.org/2000/svg">
<g clip-path="url(#clip0)">
<path d="M0.973684 12.1709C0.389474 12.1709 0 11.7815 0 11.1973V7.78936C0 7.20515 0.389474 6.81567 0.973684 6.81567C1.55789 6.81567 1.94737 7.20515 1.94737 7.78936V11.1973C1.94737 11.6841 1.55789 12.1709 0.973684 12.1709Z" fill="#21464F"/>
<path d="M7.98421 12.171C7.4 12.171 7.01053 11.7815 7.01053 11.1973V6.81573C7.01053 6.23151 7.4 5.84204 7.98421 5.84204C8.56842 5.84204 8.9579 6.23151 8.9579 6.81573V11.1973C8.9579 11.6841 8.56842 12.171 7.98421 12.171Z" fill="#21464F"/>
<path d="M14.9947 12.1711C14.4105 12.1711 14.0211 11.7816 14.0211 11.1974V0.973684C14.0211 0.389474 14.4105 0 14.9947 0C15.579 0 15.9684 0.389474 15.9684 0.973684V11.1974C15.9684 11.6842 15.579 12.1711 14.9947 12.1711Z" fill="#21464F"/>
<path d="M22.0053 12.1711C21.4211 12.1711 21.0316 11.7816 21.0316 11.1974V0.973684C21.0316 0.389474 21.4211 0 22.0053 0C22.5895 0 22.979 0.389474 22.979 0.973684V11.1974C22.979 11.6842 22.5895 12.1711 22.0053 12.1711Z" fill="#21464F"/>
<path d="M29.0158 12.1711C28.4316 12.1711 28.0421 11.7816 28.0421 11.1974V0.973684C28.0421 0.389474 28.4316 0 29.0158 0C29.6 0 29.9895 0.389474 29.9895 0.973684V11.1974C29.9895 11.6842 29.6 12.1711 29.0158 12.1711Z" fill="#21464F"/>
<path d="M36.0263 12.1711C35.4421 12.1711 35.0526 11.7816 35.0526 11.1974V0.973684C35.0526 0.389474 35.4421 0 36.0263 0C36.6105 0 37 0.389474 37 0.973684V11.1974C37 11.6842 36.6105 12.1711 36.0263 12.1711Z" fill="#21464F"/>
<path d="M0.973684 12.1711C0.389474 12.1711 0 11.7816 0 11.1974V0.973684C0 0.389474 0.389474 0 0.973684 0C1.55789 0 1.94737 0.389474 1.94737 0.973684V11.1974C1.94737 11.6842 1.55789 12.1711 0.973684 12.1711Z" fill="#82A6A5"/>
<path d="M7.98421 12.1711C7.4 12.1711 7.01053 11.7816 7.01053 11.1974V0.973684C7.01053 0.389474 7.4 0 7.98421 0C8.56842 0 8.9579 0.389474 8.9579 0.973684V11.1974C8.9579 11.6842 8.56842 12.1711 7.98421 12.1711Z" fill="#82A6A5"/>
<path d="M14.9947 10.2237C14.4105 10.2237 14.0211 9.83423 14.0211 9.25002V2.92107C14.0211 2.33686 14.4105 1.94739 14.9947 1.94739C15.579 1.94739 15.9684 2.33686 15.9684 2.92107V9.25002C15.9684 9.73686 15.579 10.2237 14.9947 10.2237Z" fill="#82A6A5"/>
</g>
<defs>
<clipPath id="clip0">
<rect width="38" height="12" fill="white"/>
</clipPath>
</defs>
</svg>
