<svg width="32" height="32" viewBox="0 0 32 32" fill="none" xmlns="http://www.w3.org/2000/svg">
<path d="M6.85621 6.53943C6.2549 5.93417 5.35294 5.78285 4.75163 6.38812C4.15033 6.99338 4.30065 7.90128 4.90196 8.50654L8.66013 12.2894V15.921C8.66013 19.7039 11.817 22.8815 15.5752 22.8815C16.6275 22.8815 17.6797 22.5789 18.5817 22.125L20.2353 23.7894C18.8824 24.546 17.2288 25.1513 15.5752 25.1513C10.4641 25.1513 6.40523 20.9144 6.40523 15.921V12.4407C6.40523 11.8355 5.95425 11.2302 5.20261 11.2302C4.45098 11.2302 4 11.8355 4 12.4407V15.921C4 21.9736 8.5098 26.8158 14.3725 27.421V29.5394C14.3725 30.1447 14.8235 30.75 15.5752 30.75C16.1765 30.75 16.7778 30.296 16.7778 29.5394V27.421C18.732 27.2697 20.3856 26.5131 21.8889 25.6052L23.9935 27.7236C24.5948 28.3289 25.6471 28.4802 26.098 27.875C26.6993 27.2697 26.549 26.3618 25.9477 25.7565L6.85621 6.53943ZM15.5752 20.6118C13.0196 20.6118 10.915 18.4934 10.915 15.921V14.5592L16.6275 20.3092C16.3268 20.4605 15.8758 20.6118 15.5752 20.6118Z" fill="#70A6A6"/>
<path d="M15.5752 4.26974C18.1307 4.26974 20.2353 6.38816 20.2353 8.96053V15.9211C20.2353 16.0724 20.2353 16.0724 20.2353 16.2237L22.1896 18.1908C22.4902 17.4342 22.6405 16.8289 22.6405 16.0724V8.96053C22.6405 5.17763 19.4837 2 15.7255 2C13.0196 2 10.7647 3.36184 9.5621 5.48026L11.2157 7.14474C11.9673 5.48026 13.6209 4.26974 15.5752 4.26974Z" fill="#70A6A6"/>
<path d="M25.9477 11.2302C25.3464 11.2302 24.7451 11.6842 24.7451 12.4408V15.921C24.7451 17.2829 24.4444 18.6447 23.8431 19.8552L25.4967 21.5197C26.3987 19.8552 27 17.8881 27 15.7697V12.4408C27 11.8355 26.549 11.2302 25.9477 11.2302Z" fill="#70A6A6"/>
</svg>
