<svg width="32" height="32" viewBox="0 0 32 32" fill="none" xmlns="http://www.w3.org/2000/svg">
<path d="M31.4074 8.60742C31.0519 8.37039 30.6963 8.37039 30.3407 8.60742L22.8741 12.4V9.55556C22.8741 7.65926 21.3333 6 19.437 6H3.43704C1.54074 6 0 7.54074 0 9.55556V23.6593C0 25.5556 1.54074 27.2149 3.43704 27.2149H19.437C21.3333 27.2149 22.8741 25.6741 22.8741 23.6593V20.8148L30.3407 24.6074C30.9333 24.8445 31.6445 24.6074 31.8815 24.1333C32 24.0148 32 23.7778 32 23.6593V9.55556C32 9.2 31.763 8.84446 31.4074 8.60742ZM20.6222 23.6593C20.6222 24.2519 20.1482 24.8445 19.437 24.8445H3.43704C2.84445 24.8445 2.25185 24.3704 2.25185 23.6593V9.55556C2.25185 8.96296 2.72593 8.37037 3.43704 8.37037H19.437C20.0296 8.37037 20.6222 8.84445 20.6222 9.55556V23.6593ZM29.7482 21.763L22.8741 18.2074V15.0074L29.7482 11.4518V21.763Z" fill="#70A6A6"/>
<path d="M11.7264 19.8475C13.6323 19.8475 15.157 18.3227 15.157 16.4168V12.9862C15.157 11.0803 13.6323 9.55554 11.7264 9.55554C9.82044 9.55554 8.29572 11.0803 8.29572 12.9862V16.4168C8.29572 18.2683 9.82044 19.8475 11.7264 19.8475ZM9.43926 12.9862C9.43926 11.7337 10.4739 10.6991 11.7264 10.6991C12.9788 10.6991 14.0134 11.7337 14.0134 12.9862V16.4168C14.0134 17.6693 12.9788 18.7039 11.7264 18.7039C10.4739 18.7039 9.43926 17.6693 9.43926 16.4168V12.9862Z" fill="#70A6A6" stroke="#70A6A6" stroke-width="0.5"/>
<path d="M11.1818 22.0257V23.1148C11.1818 23.4415 11.4541 23.6593 11.7263 23.6593C12.0531 23.6593 12.2709 23.387 12.2709 23.1148V22.0257C15.157 21.7534 17.3896 19.3574 17.3896 16.4169V14.7287C17.3896 14.402 17.1173 14.1842 16.8451 14.1842C16.5183 14.1842 16.3005 14.4565 16.3005 14.7287V16.4169C16.3005 18.9218 14.2857 20.9366 11.7808 20.9366C9.27588 20.9366 7.26106 18.9218 7.26106 16.4169V14.7287C7.26106 14.402 6.98879 14.1842 6.71652 14.1842C6.38979 14.1842 6.17197 14.4565 6.17197 14.7287V16.4169C6.06306 19.3574 8.2957 21.7534 11.1818 22.0257Z" fill="#70A6A6" stroke="#70A6A6" stroke-width="0.5"/>
</svg>
