<svg width="32" height="32" viewBox="0 0 32 32" fill="none" xmlns="http://www.w3.org/2000/svg">
<path d="M16.207 20.9C19.707 20.9 22.507 18.1 22.507 14.6V8.29999C22.507 4.79999 19.707 2 16.207 2C12.707 2 9.90698 4.79999 9.90698 8.29999V14.6C9.90698 18 12.707 20.9 16.207 20.9ZM12.007 8.29999C12.007 5.99999 13.907 4.10004 16.207 4.10004C18.507 4.10004 20.407 5.99999 20.407 8.29999V14.6C20.407 16.9 18.507 18.8 16.207 18.8C13.907 18.8 12.007 16.9 12.007 14.6V8.29999Z" fill="#70A6A6"/>
<path d="M15.207 24.9V26.9C15.207 27.5 15.707 27.9 16.207 27.9C16.807 27.9 17.207 27.4 17.207 26.9V24.9C22.507 24.4 26.607 20 26.607 14.6V11.5C26.607 10.9 26.107 10.5 25.607 10.5C25.007 10.5 24.607 11 24.607 11.5V14.6C24.607 19.2 20.907 22.9 16.307 22.9C11.707 22.9 8.00702 19.2 8.00702 14.6V11.5C8.00702 10.9 7.50702 10.5 7.00702 10.5C6.40702 10.5 6.00702 11 6.00702 11.5V14.6C5.80702 20 9.90701 24.4 15.207 24.9Z" fill="#70A6A6"/>
</svg>
