<svg width="24" height="24" viewBox="0 0 24 24" fill="none" xmlns="http://www.w3.org/2000/svg">
<path d="M5.98693 5.15797C5.56863 4.73692 4.94118 4.63166 4.52288 5.05271C4.10458 5.47376 4.20915 6.10534 4.62745 6.52639L7.24183 9.15797V11.6843C7.24183 14.3159 9.43791 16.5264 12.0523 16.5264C12.7843 16.5264 13.5163 16.3159 14.1438 16.0001L15.2941 17.158C14.3529 17.6843 13.2026 18.1053 12.0523 18.1053C8.49673 18.1053 5.6732 15.158 5.6732 11.6843V9.26324C5.6732 8.84218 5.35948 8.42113 4.8366 8.42113C4.31373 8.42113 4 8.84218 4 9.26324V11.6843C4 15.8948 7.13726 19.2632 11.2157 19.6843V21.158C11.2157 21.579 11.5294 22.0001 12.0523 22.0001C12.4706 22.0001 12.8889 21.6843 12.8889 21.158V19.6843C14.2484 19.579 15.3987 19.0527 16.4444 18.4211L17.9085 19.8948C18.3268 20.3159 19.0588 20.4211 19.3725 20.0001C19.7909 19.579 19.6863 18.9474 19.268 18.5264L5.98693 5.15797ZM12.0523 14.9474C10.2745 14.9474 8.81046 13.4738 8.81046 11.6843V10.7369L12.7843 14.7369C12.5752 14.8422 12.2614 14.9474 12.0523 14.9474Z" fill="#70A6A6"/>
<path d="M12.0523 3.57895C13.83 3.57895 15.2941 5.05263 15.2941 6.84211V11.6842C15.2941 11.7895 15.2941 11.7895 15.2941 11.8947L16.6536 13.2632C16.8627 12.7368 16.9673 12.3158 16.9673 11.7895V6.84211C16.9673 4.21053 14.7712 2 12.1568 2C10.2745 2 8.70586 2.94737 7.86926 4.42105L9.01959 5.57895C9.54247 4.42105 10.6928 3.57895 12.0523 3.57895Z" fill="#70A6A6"/>
<path d="M19.2679 8.42114C18.8496 8.42114 18.4313 8.73693 18.4313 9.26325V11.6843C18.4313 12.6317 18.2222 13.579 17.8039 14.4211L18.9542 15.579C19.5817 14.4211 20 13.0527 20 11.579V9.26325C20 8.8422 19.6862 8.42114 19.2679 8.42114Z" fill="#70A6A6"/>
</svg>
