<svg width="24" height="24" viewBox="0 0 24 24" fill="none" xmlns="http://www.w3.org/2000/svg">
<path d="M16.927 9.27075C16.6979 9.04159 16.2395 9.04159 16.0104 9.27075C15.7812 9.49992 15.7812 9.95825 16.0104 10.1874L17.0416 11.2187V12.2499C17.1562 13.3958 18.0729 14.3124 19.3333 14.3124C19.5625 14.3124 19.9062 14.3124 20.1354 14.1978L20.3645 14.427C20.0208 14.5416 19.677 14.6562 19.3333 14.6562C17.9583 14.6562 16.8125 13.5103 16.8125 12.1353V11.1041C16.8125 10.7603 16.5833 10.5312 16.2395 10.5312C15.8958 10.5312 15.6666 10.7603 15.6666 11.1041V12.1353C15.6666 13.8541 16.927 15.4583 18.7604 15.6874V16.1458C18.7604 16.4895 18.9895 16.7187 19.3333 16.7187C19.677 16.7187 19.9062 16.4895 19.9062 16.1458V15.6874C20.3645 15.5728 20.8229 15.4583 21.1666 15.2291L21.625 15.6874C21.8541 15.9166 22.3125 15.9166 22.5416 15.6874C22.7708 15.4583 22.7708 14.9999 22.5416 14.7708L16.927 9.27075ZM18.1875 12.1353L19.3333 13.2812C18.6458 13.2812 18.1875 12.8228 18.1875 12.1353Z" fill="#70A6A6"/>
<path d="M7.76038 16.0312C10.052 16.0312 11.7708 14.1979 11.7708 12.0208V8.01042C11.7708 5.71875 9.93746 4 7.76038 4C5.58329 4 3.63538 5.83333 3.63538 8.01042V12.0208C3.63538 14.3125 5.46871 16.0312 7.76038 16.0312ZM5.12496 8.01042C5.12496 6.63542 6.27079 5.48958 7.64579 5.48958C9.02079 5.48958 10.1666 6.63542 10.1666 8.01042V12.0208C10.1666 13.3958 9.02079 14.5417 7.64579 14.5417C6.27079 14.5417 5.12496 13.3958 5.12496 12.0208V8.01042Z" fill="#70A6A6"/>
<path d="M13.6042 9.271C13.1458 9.271 12.8021 9.61475 12.8021 10.0731V12.021C12.8021 14.8856 10.5104 17.1772 7.64583 17.1772C4.78125 17.1772 2.48958 14.8856 2.48958 12.021V10.0731C2.48958 9.61475 2.14583 9.271 1.6875 9.271C1.34375 9.271 1 9.61475 1 10.0731V12.021C1 15.4585 3.52083 18.3231 6.95833 18.6668V19.8127C6.95833 20.271 7.30208 20.6147 7.76042 20.6147C8.21875 20.6147 8.5625 20.271 8.5625 19.8127V18.6668C12 18.3231 14.5208 15.4585 14.5208 12.021V10.0731C14.4062 9.61475 14.0625 9.271 13.6042 9.271Z" fill="#70A6A6"/>
<path d="M18.4166 9.38533C18.6458 9.04158 18.9896 8.81242 19.3333 8.81242C20.0208 8.81242 20.4791 9.38533 20.4791 9.95825V11.5624L21.5104 12.5937V12.4791C21.5104 12.3645 21.5104 12.1353 21.5104 12.0208V10.0728C21.5104 8.81242 20.4791 7.89575 19.3333 7.89575C18.6458 7.89575 18.0729 8.2395 17.6146 8.69784V8.81242L18.4166 9.38533Z" fill="#70A6A6"/>
<path d="M22.4271 10.5312C22.0833 10.5312 21.8541 10.7604 21.8541 11.1042V12.1354C21.8541 12.3646 21.8541 12.5938 21.7396 12.8229L22.5416 13.625V13.5104C22.7708 13.1667 23 12.5938 23 12.1354V11.1042C23 10.7604 22.6562 10.5312 22.4271 10.5312Z" fill="#70A6A6"/>
</svg>
