<svg width="24" height="24" viewBox="0 0 24 24" fill="none" xmlns="http://www.w3.org/2000/svg">
<path d="M14.015 2.99902C14.0156 2.99966 14.0165 3.00002 14.0174 3.00002H21V9.98402V9.98402C19.8866 9.98402 18.984 9.08143 18.984 7.96802V6.42102L9.88999 15.515C9.50174 15.9033 8.87225 15.9033 8.48399 15.515V15.515C8.09574 15.1268 8.09574 14.4973 8.48399 14.109L17.578 5.01502H16.031C14.9176 5.01502 14.015 4.11243 14.015 2.99902V2.99902V2.99902ZM18.984 18.984V13.008C18.984 12.4513 19.4353 12 19.992 12V12C20.5487 12 21 12.4513 21 13.008V18.984C21 20.062 20.062 21 18.984 21H5.01499C3.88999 21 2.99899 20.062 2.99899 18.984V5.01502C2.99899 3.93702 3.88999 2.99902 5.01499 2.99902H10.991C11.5477 2.99902 11.999 3.45032 11.999 4.00702V4.00702C11.999 4.56373 11.5477 5.01502 10.991 5.01502H5.01499V18.984H18.984Z" fill="#70A6A6"/>
</svg>
