<svg width="24" height="24" viewBox="0 0 24 24" fill="none" xmlns="http://www.w3.org/2000/svg">
<path d="M18.1546 13.7254C17.7597 13.3174 17.2888 13.1008 16.7876 13.1008C16.2914 13.1008 15.8105 13.3123 15.4004 13.7204L14.1194 14.9899C14.0131 14.9345 13.9068 14.8791 13.8055 14.8287C13.6587 14.7582 13.522 14.6877 13.4055 14.6171C12.2056 13.8615 11.1171 12.8741 10.0741 11.5945C9.56781 10.9597 9.22859 10.4207 8.9805 9.87657C9.31466 9.57431 9.61844 9.26196 9.92222 8.9597C10.0336 8.84887 10.15 8.72796 10.2614 8.61713C11.112 7.77078 11.112 6.67254 10.2614 5.8262L9.15771 4.72796C9.03113 4.60202 8.90456 4.47607 8.78305 4.34509C8.54002 4.0932 8.28688 3.83627 8.0236 3.59446C7.62363 3.20655 7.15277 3 6.66166 3C6.16549 3 5.68957 3.20655 5.28453 3.59446L5.27441 3.60453L3.89728 4.98489C3.37579 5.49874 3.08214 6.12846 3.01632 6.85894C2.92012 8.03778 3.26947 9.13098 3.53274 9.85139C4.19093 11.6146 5.16808 13.2469 6.63128 14.995C8.40332 17.1008 10.5399 18.7683 12.9803 19.9421C13.9118 20.3804 15.1573 20.8992 16.5446 20.9899C16.6307 20.995 16.7167 21 16.7977 21C17.7344 21 18.5191 20.6675 19.1368 20.0025C19.1419 19.9924 19.147 19.9924 19.152 19.9824C19.3647 19.7305 19.6077 19.4987 19.8608 19.2519C20.033 19.0856 20.2152 18.9144 20.3874 18.733C20.7874 18.3199 21 17.8363 21 17.3375C21 16.8388 20.7874 16.3602 20.3773 15.9572L18.1546 13.7254ZM19.6026 17.9673C19.5976 17.9673 19.5976 17.9723 19.6026 17.9673C19.4457 18.1385 19.2837 18.2897 19.1064 18.461C18.8432 18.7128 18.5748 18.9748 18.3268 19.267C17.9167 19.7003 17.4357 19.9068 16.8028 19.9068C16.742 19.9068 16.6762 19.9068 16.6155 19.9018C15.4105 19.8262 14.2966 19.3577 13.4562 18.9597C11.1626 17.8564 9.15264 16.2897 7.4768 14.2997C6.09967 12.6423 5.17821 11.1108 4.56559 9.46851C4.19093 8.46599 4.04917 7.68514 4.10992 6.94458C4.15043 6.47103 4.33269 6.08312 4.66685 5.74559L6.04904 4.37028C6.2465 4.18388 6.45914 4.08312 6.66672 4.08312C6.91987 4.08312 7.12745 4.23426 7.25909 4.36524L7.26922 4.37531C7.5173 4.60705 7.7502 4.84383 7.99829 5.09572C8.12486 5.2267 8.25144 5.35264 8.38307 5.48867L9.4868 6.5869C9.91715 7.01511 9.91715 7.40806 9.4868 7.83627C9.37035 7.95214 9.2539 8.06801 9.13746 8.18388C8.79824 8.53149 8.47421 8.8539 8.1198 9.16625C8.10967 9.17632 8.10461 9.17632 8.09955 9.1864C7.7502 9.53401 7.81602 9.87154 7.8869 10.1033L7.89703 10.1385C8.18562 10.8338 8.59065 11.4836 9.20327 12.2645L9.20834 12.2695C10.3273 13.6398 11.5069 14.7078 12.803 15.5239C12.9701 15.6297 13.1372 15.7154 13.2992 15.796C13.446 15.8665 13.5827 15.937 13.6992 16.0076C13.7144 16.0176 13.7296 16.0277 13.7498 16.0378C13.8865 16.1083 14.0182 16.1385 14.1498 16.1385C14.484 16.1385 14.6966 15.927 14.7675 15.8615L16.1649 14.4861C16.3016 14.3501 16.5193 14.1839 16.7775 14.1839C17.0306 14.1839 17.2331 14.3401 17.3597 14.4761L19.5976 16.7028C20.0178 17.1159 20.0178 17.539 19.6026 17.9673Z" fill="#70A6A6"/>
</svg>
