<svg width="34" height="32" viewBox="0 0 34 32" fill="none" xmlns="http://www.w3.org/2000/svg">
<path d="M31.0802 1H1.91176C1.40344 1 1 1.40344 1 1.91176V5.84123C1 6.34149 1.40344 6.75299 1.91176 6.75299H2.82353V27.4492C2.82353 27.9495 3.22697 28.361 3.73529 28.361H15.5963V30.1765H14.6845C14.1843 30.1765 13.7728 30.5799 13.7728 31.0882C13.7728 31.5885 14.1762 32 14.6845 32H18.3155C18.8157 32 19.2272 31.5966 19.2272 31.0882C19.2272 30.588 18.8238 30.1765 18.3155 30.1765H17.4037V28.3529H29.2647C29.765 28.3529 30.1765 27.9495 30.1765 27.4412V6.75299H31.0882C31.5885 6.75299 32 6.34956 32 5.84123V1.91176C31.9839 1.40344 31.5804 1 31.0802 1ZM28.3529 26.5375H4.63092V6.75299H28.3529V26.5375ZM30.1684 4.93753H2.81546V2.81546H30.1684V4.93753Z" fill="#70A6A6"/>
<path d="M11.9412 23.181C14.967 23.181 17.436 20.712 17.436 17.6862C17.436 14.6604 14.967 12.1914 11.9412 12.1914C8.91544 12.1914 6.44641 14.6604 6.44641 17.6862C6.44641 20.72 8.91544 23.181 11.9412 23.181ZM15.5076 16.7825H12.853V14.1279C14.152 14.4587 15.1768 15.4834 15.5076 16.7825ZM11.0294 14.1279V17.6943C11.0294 18.1945 11.4329 18.606 11.9412 18.606H15.5076C15.1041 20.1956 13.6598 21.3817 11.9412 21.3817C9.91596 21.3817 8.26187 19.7276 8.26187 17.7023C8.26187 15.9756 9.4399 14.5313 11.0294 14.1279Z" fill="#70A6A6"/>
<path d="M10.7067 10.3841H22.2772C22.7775 10.3841 23.189 9.98064 23.189 9.47231C23.189 8.96398 22.7856 8.56055 22.2772 8.56055H10.7067C10.2064 8.56055 9.79492 8.96398 9.79492 9.47231C9.79492 9.98064 10.2064 10.3841 10.7067 10.3841Z" fill="#70A6A6"/>
<path d="M19.2514 14.0553C19.2514 14.5556 19.6548 14.9671 20.1632 14.9671H25.6338C26.134 14.9671 26.5455 14.5636 26.5455 14.0553C26.5455 13.5551 26.1421 13.1436 25.6338 13.1436H20.1632C19.6548 13.1516 19.2514 13.5551 19.2514 14.0553Z" fill="#70A6A6"/>
<path d="M25.6338 16.7825H20.1632C19.6629 16.7825 19.2514 17.1859 19.2514 17.6942C19.2514 18.1945 19.6548 18.606 20.1632 18.606H25.6338C26.134 18.606 26.5455 18.2026 26.5455 17.6942C26.5374 17.1859 26.134 16.7825 25.6338 16.7825Z" fill="#70A6A6"/>
<path d="M25.6338 20.4136H20.1632C19.6629 20.4136 19.2514 20.817 19.2514 21.3253C19.2514 21.8256 19.6548 22.229 20.1632 22.229H25.6338C26.134 22.229 26.5455 21.8256 26.5455 21.3253C26.5374 20.817 26.134 20.4136 25.6338 20.4136Z" fill="#70A6A6"/>
</svg>
