<svg width="24" height="24" viewBox="0 0 24 24" fill="none" xmlns="http://www.w3.org/2000/svg">
<path d="M19.225 6C19.225 6 19.225 5.9 19.225 6C18.925 5.7 18.825 5.4 18.625 5.2C18.525 5.1 18.525 5.1 18.425 5C18.225 4.8 18.025 4.6 17.825 4.4L17.725 4.3C17.125 3.8 16.525 3.4 15.925 3.1H15.825C15.525 3 15.225 2.8 14.925 2.7C14.825 2.7 14.825 2.7 14.725 2.6C14.425 2.5 14.225 2.4 13.925 2.3C13.825 2.3 13.725 2.3 13.725 2.2C13.425 2.1 13.225 2.1 12.925 2C12.825 2 12.725 2 12.625 2C11.925 2 11.125 2 10.425 2.1C10.325 2.1 10.225 2.1 10.125 2.1C9.825 2.1 9.525 2.2 9.325 2.3C9.225 2.3 9.125 2.3 9.125 2.4C8.825 2.4 8.625 2.5 8.325 2.6C8.225 2.6 8.225 2.6 8.125 2.7C7.825 2.8 7.525 2.9 7.225 3H7.125C6.525 3.4 5.925 3.8 5.325 4.3L5.225 4.4C5.025 4.6 4.825 4.8 4.625 5C4.525 5.1 4.525 5.1 4.425 5.2C4.225 5.4 4.025 5.7 3.825 5.9L3.725 6C1.425 9.3 1.425 13.7 3.725 17L3.825 17.1C4.025 17.3 4.225 17.6 4.425 17.8C4.525 17.9 4.525 17.9 4.625 18C4.825 18.2 5.025 18.4 5.225 18.6L5.325 18.7C5.925 19.2 6.525 19.6 7.125 19.9H7.225C7.525 20 7.825 20.2 8.125 20.3C8.225 20.3 8.225 20.3 8.325 20.4C8.625 20.5 8.825 20.6 9.125 20.7C9.225 20.7 9.325 20.7 9.325 20.8C9.625 20.9 9.825 20.9 10.125 21C10.225 21 10.325 21 10.425 21C11.125 21.1 11.825 21.1 12.625 21C12.725 21 12.825 21 12.925 21C13.225 21 13.525 20.9 13.725 20.8C13.825 20.8 13.925 20.8 13.925 20.7C14.225 20.6 14.425 20.5 14.725 20.4C14.825 20.4 14.825 20.4 14.925 20.3C15.225 20.2 15.525 20.1 15.825 19.9H15.925C16.525 19.6 17.125 19.2 17.725 18.7L17.825 18.6C18.025 18.4 18.225 18.2 18.425 18C18.525 17.9 18.525 17.9 18.625 17.8C18.825 17.6 19.025 17.3 19.225 17.1L19.325 17C21.625 13.7 21.625 9.3 19.225 6ZM18.525 15.7C17.525 15.2 16.325 14.8 15.225 14.6C15.425 13.8 15.525 13 15.625 12.2H19.725C19.525 13.4 19.125 14.6 18.525 15.7ZM17.625 16.9C17.425 17.1 17.325 17.3 17.125 17.4L17.025 17.5C16.825 17.7 16.725 17.8 16.525 17.9L16.425 18C16.225 18.1 16.025 18.3 15.825 18.4L15.725 18.5C15.525 18.6 15.325 18.7 15.125 18.8C15.125 18.8 15.025 18.8 15.025 18.9C14.825 19 14.525 19.1 14.325 19.2H14.225C14.025 19.3 13.725 19.3 13.525 19.4H13.425C13.325 19.4 13.225 19.4 13.125 19.4C13.825 18.3 14.525 17.1 14.925 15.8C15.825 16.1 16.725 16.4 17.625 16.9C17.625 16.8 17.625 16.9 17.625 16.9ZM9.725 19.4C9.525 19.3 9.225 19.3 9.025 19.2H8.925C8.725 19.1 8.425 19 8.225 18.9C8.225 18.9 8.125 18.9 8.125 18.8C7.925 18.7 7.725 18.6 7.525 18.5L7.425 18.4C7.225 18.3 7.025 18.2 6.825 18L6.725 17.9C6.525 17.8 6.325 17.6 6.225 17.5L6.125 17.4C5.925 17.2 5.825 17.1 5.625 16.9C5.625 16.9 5.625 16.9 5.525 16.8C6.425 16.4 7.425 16 8.425 15.9C8.925 17.2 9.525 18.4 10.225 19.5C10.125 19.5 10.025 19.5 9.925 19.5C9.725 19.5 9.725 19.4 9.725 19.4ZM3.425 12.2H7.525C7.525 13 7.725 13.8 7.925 14.6C6.825 14.8 5.625 15.2 4.625 15.7C3.925 14.6 3.525 13.4 3.425 12.2ZM4.525 7.3C5.525 7.8 6.725 8.2 7.825 8.4C7.625 9.2 7.525 10 7.525 10.8H3.425C3.525 9.6 3.925 8.4 4.525 7.3ZM5.425 6.1C5.625 5.9 5.725 5.7 5.925 5.6L6.025 5.5C6.225 5.3 6.425 5.2 6.625 5L6.725 4.9C6.925 4.8 7.125 4.6 7.325 4.5L7.425 4.4C7.625 4.4 7.825 4.2 8.025 4.1C8.025 4.1 8.125 4.1 8.125 4C8.425 4 8.625 3.9 8.825 3.8H8.925C9.125 3.7 9.425 3.7 9.625 3.6H9.725C9.825 3.6 9.925 3.6 10.025 3.6C9.325 4.6 8.725 5.8 8.225 7.1C7.225 6.9 6.325 6.6 5.425 6.1C5.425 6.2 5.425 6.1 5.425 6.1ZM13.325 3.6C13.525 3.7 13.825 3.7 14.025 3.8H14.125C14.325 3.9 14.625 4 14.825 4.1C14.825 4.1 14.925 4.1 14.925 4.2C15.125 4.3 15.325 4.4 15.525 4.5L15.625 4.6C15.825 4.7 16.025 4.8 16.225 5L16.325 5.1C16.525 5.2 16.725 5.4 16.825 5.5L16.925 5.6C17.125 5.8 17.225 5.9 17.425 6.1C17.425 6.1 17.425 6.1 17.525 6.2C16.625 6.6 15.625 7 14.625 7.1C14.125 5.8 13.525 4.6 12.825 3.5C12.925 3.5 13.025 3.5 13.125 3.5C13.325 3.6 13.325 3.6 13.325 3.6ZM11.525 14.2C10.725 14.2 10.025 14.2 9.225 14.3C9.025 13.6 8.925 12.9 8.825 12.1H14.225C14.125 12.8 14.025 13.6 13.825 14.3C13.125 14.3 12.325 14.2 11.525 14.2ZM13.425 15.7C12.925 16.9 12.325 18.1 11.525 19.2C10.725 18.1 10.125 16.9 9.625 15.7C10.925 15.5 12.125 15.5 13.425 15.7ZM8.825 10.8C8.925 10.1 9.025 9.4 9.225 8.6C10.025 8.7 10.725 8.8 11.525 8.8C12.325 8.8 13.025 8.8 13.825 8.7C14.025 9.4 14.125 10.1 14.225 10.9H8.825V10.8ZM11.525 7.4C10.925 7.4 10.225 7.4 9.625 7.3C10.125 6.1 10.725 4.9 11.525 3.8C12.325 4.9 12.925 6.1 13.425 7.3C12.825 7.4 12.125 7.4 11.525 7.4ZM15.525 10.8C15.525 10 15.325 9.2 15.125 8.4C16.225 8.2 17.425 7.8 18.425 7.3C19.025 8.4 19.425 9.6 19.525 10.8H15.525Z" fill="#70A6A6"/>
</svg>
