<svg width="24" height="24" viewBox="0 0 24 24" fill="none" xmlns="http://www.w3.org/2000/svg">
<path d="M12 20.0161C16.406 20.0161 20.016 16.4071 20.016 12.0001C20.016 7.59311 16.407 3.98411 12 3.98411C7.59299 3.98411 3.98399 7.59311 3.98399 12.0001C3.98399 16.4071 7.59299 20.0161 12 20.0161ZM12 2.01611C17.531 2.01611 21.984 6.46911 21.984 12.0001C21.984 17.5311 17.531 21.9841 12 21.9841C6.46899 21.9841 2.01599 17.5311 2.01599 12.0001C2.01599 6.46911 6.46899 2.01611 12 2.01611ZM12 6.98411C14.766 6.98411 17.016 9.23411 17.016 12.0001C17.016 14.7661 14.766 17.0161 12 17.0161C9.23399 17.0161 6.98399 14.7661 6.98399 12.0001C6.98399 9.23411 9.23399 6.98411 12 6.98411Z" fill="#70A6A6"/>
</svg>
