<svg width="32" height="32" viewBox="0 0 32 32" fill="none" xmlns="http://www.w3.org/2000/svg">
<path d="M27.0508 14.2359C26.2569 13.5841 25.1325 13.3755 24.186 13.7042C23.9324 13.7924 23.6969 13.9161 23.4858 14.072C22.9477 14.4696 21.753 15.663 20.8062 16.8441V7.73966C20.8062 6.9658 20.4894 6.20943 19.9372 5.66428C19.3889 5.12314 18.6687 4.83128 17.913 4.84548C17.5698 4.85162 17.2411 4.91998 16.9372 5.03941V4.15013C16.9372 3.30792 16.5925 2.48462 15.991 1.89098C15.3949 1.30254 14.6149 0.985381 13.7899 1.00052C12.1451 1.02914 10.8022 2.37181 10.753 4.01319C10.3967 3.85095 10.0097 3.75989 9.60912 3.74783C8.77353 3.72323 7.94595 4.04796 7.33927 4.63947C6.74508 5.21869 6.41772 5.98333 6.41772 6.7903L6.4156 7.65262C6.15913 7.56795 5.8857 7.5216 5.60144 7.5216C4.16695 7.5216 3 8.69351 3 10.1339L3.00094 23.3685L3.00306 23.4312C3.12294 25.1681 3.48492 26.6553 4.07934 27.8516C4.63656 28.9731 5.41398 29.8761 6.38993 30.5355C8.31052 31.8335 10.683 32 12.5353 32C16.1728 32 19.4452 30.1838 21.0818 27.2587C21.2808 26.9365 21.8052 26.1083 22.3716 25.215C22.9232 24.3446 23.4364 23.5426 23.8888 22.835C24.1375 22.4459 24.3638 22.0921 24.5602 21.7837C25.292 20.6345 26.0717 19.5203 26.8781 18.4718C27.1772 18.083 27.2693 17.9775 27.2903 17.9543C27.6678 17.5407 27.9057 17.0343 27.9782 16.4896C28.0924 15.6351 27.7542 14.8135 27.0508 14.2359ZM26.1836 16.2484C26.1603 16.4224 26.0814 16.5875 25.9554 16.7257C25.8897 16.7978 25.7722 16.935 25.4453 17.3602C24.6062 18.451 23.7951 19.6097 23.0346 20.804C22.8387 21.1117 22.6133 21.4641 22.365 21.8523C21.9117 22.5613 21.3978 23.3652 20.8441 24.2384C20.2645 25.1528 19.728 25.9997 19.5316 26.3183L19.5111 26.3533C18.1977 28.7146 15.5249 30.1815 12.5356 30.1815C10.9405 30.1815 8.91507 30.0502 7.40098 29.0271C5.85603 27.9831 5.00914 26.1218 4.81178 23.3366L4.81084 10.1341C4.81084 9.69631 5.16551 9.34013 5.60144 9.34013C6.03996 9.34013 6.39676 9.69631 6.39676 10.1341V15.0869C6.39676 15.1015 6.39841 15.1157 6.39888 15.1304C6.39982 15.1465 6.39982 15.1628 6.40147 15.1789C6.40288 15.1933 6.40571 15.2073 6.40783 15.2214C6.41019 15.2373 6.41183 15.2534 6.4149 15.2692C6.41796 15.2834 6.4222 15.2974 6.42573 15.3113C6.4295 15.3262 6.43256 15.3416 6.43727 15.3563C6.44151 15.3704 6.44716 15.3842 6.45234 15.3979C6.45729 15.4118 6.46176 15.426 6.46765 15.4397C6.4733 15.4535 6.48013 15.4665 6.48649 15.4797C6.49285 15.493 6.49874 15.5064 6.50557 15.5194C6.5124 15.5322 6.52064 15.5445 6.52818 15.5571C6.53571 15.5696 6.54278 15.5824 6.55078 15.5944C6.55903 15.6065 6.56821 15.6178 6.57693 15.6294C6.58564 15.6413 6.59365 15.6533 6.60283 15.6644C6.61202 15.6755 6.62214 15.6857 6.63156 15.6964C6.64146 15.7072 6.65088 15.7188 6.66124 15.7292C6.67137 15.7392 6.68196 15.7482 6.69256 15.7579C6.7034 15.7678 6.71399 15.7784 6.72553 15.7879C6.73637 15.7969 6.74791 15.8049 6.75921 15.8134C6.77122 15.8224 6.78276 15.8319 6.79501 15.8404C6.80655 15.8482 6.8188 15.8548 6.83057 15.8619C6.84352 15.87 6.85624 15.8785 6.86967 15.886C6.88191 15.8927 6.89486 15.8981 6.90735 15.9043C6.92101 15.9111 6.93467 15.9182 6.9488 15.9244C6.96175 15.93 6.97564 15.9343 6.98883 15.9393C7.0032 15.9445 7.01733 15.9504 7.03193 15.9551C7.04583 15.9594 7.06043 15.9624 7.07456 15.9662C7.0894 15.97 7.10376 15.9745 7.1186 15.9776C7.13367 15.9806 7.14874 15.9823 7.16382 15.9847C7.17889 15.9868 7.19349 15.9899 7.20856 15.9915C7.22364 15.9929 7.23918 15.9932 7.25449 15.9939C7.26956 15.9946 7.28463 15.9963 7.29994 15.9963C7.30065 15.9963 7.30159 15.9963 7.3023 15.9963C7.33362 15.9963 7.36447 15.9946 7.39485 15.9915C7.40804 15.9903 7.42099 15.9875 7.43418 15.9856C7.4509 15.9832 7.4681 15.9814 7.48458 15.9778C7.50201 15.9743 7.51873 15.9693 7.53569 15.9648C7.54746 15.9615 7.55971 15.9591 7.57125 15.9556C7.59009 15.9497 7.60846 15.9423 7.62683 15.9352C7.63578 15.9317 7.64544 15.9288 7.65438 15.9251C7.67275 15.9173 7.69018 15.908 7.70785 15.8993C7.71632 15.895 7.72504 15.8915 7.73352 15.887C7.75 15.878 7.76555 15.8676 7.78132 15.8577C7.79027 15.8522 7.79946 15.8473 7.80794 15.8413C7.82254 15.8316 7.83643 15.8205 7.85033 15.8096C7.85951 15.8028 7.86893 15.7964 7.87765 15.7891C7.8906 15.7787 7.90238 15.7668 7.91462 15.7555C7.92381 15.7472 7.93323 15.7392 7.94218 15.7307C7.95348 15.7193 7.96361 15.707 7.97421 15.6952C7.98292 15.6855 7.99234 15.676 8.00058 15.6661C8.01 15.6545 8.01848 15.6422 8.02743 15.6301C8.03591 15.6188 8.04486 15.6079 8.05263 15.5961C8.06087 15.584 8.0677 15.5715 8.07524 15.5589C8.08278 15.5464 8.09102 15.5341 8.09809 15.5213C8.10492 15.5086 8.11057 15.4953 8.11693 15.4823C8.12329 15.4688 8.13035 15.4556 8.13624 15.4419C8.14189 15.4286 8.14613 15.4147 8.15108 15.4012C8.15649 15.387 8.16214 15.373 8.16685 15.3584C8.17109 15.3444 8.17416 15.3302 8.17769 15.316C8.18146 15.3011 8.18593 15.2865 8.18923 15.2713C8.19205 15.2572 8.1937 15.2423 8.19582 15.2276C8.19841 15.2122 8.20124 15.1968 8.20289 15.1812C8.20454 15.1666 8.20454 15.1514 8.20524 15.1365C8.20618 15.1207 8.20783 15.1053 8.20783 15.0895L8.22879 6.79267C8.22879 6.47953 8.36091 6.17821 8.60066 5.94431C8.85831 5.69337 9.20687 5.55477 9.55566 5.56565C10.209 5.58528 10.7405 6.15598 10.7405 6.83926L10.7509 15.0389C10.7509 15.0554 10.7525 15.0715 10.7535 15.0876C10.7542 15.102 10.7542 15.1169 10.7556 15.1311C10.7572 15.1481 10.7605 15.1644 10.7631 15.181C10.7652 15.1945 10.7666 15.2082 10.7692 15.2214C10.773 15.2394 10.7782 15.2569 10.7829 15.2744C10.786 15.2858 10.7883 15.2974 10.7916 15.3085C10.7975 15.3274 10.805 15.3459 10.8121 15.3643C10.8156 15.3735 10.8182 15.383 10.822 15.392C10.8305 15.4116 10.8401 15.4308 10.8498 15.4497C10.8536 15.4568 10.8564 15.4643 10.8601 15.4712C10.8707 15.4908 10.8828 15.5095 10.8945 15.528C10.8983 15.5341 10.9016 15.5403 10.9056 15.5462C10.9181 15.5649 10.9317 15.5824 10.9454 15.5999C10.9496 15.6053 10.9534 15.611 10.9576 15.6162C10.973 15.6349 10.9894 15.6524 11.0062 15.6696C11.0097 15.6734 11.0125 15.6772 11.0161 15.6807C11.0332 15.698 11.0516 15.7141 11.0702 15.7299C11.0738 15.733 11.0768 15.7363 11.0803 15.7394C11.099 15.7548 11.1183 15.7687 11.1378 15.7824C11.1421 15.7855 11.1458 15.7888 11.1501 15.7917C11.1698 15.8052 11.1906 15.8172 11.2113 15.829C11.2158 15.8316 11.22 15.8347 11.2247 15.8373C11.2464 15.8489 11.2688 15.8593 11.2914 15.8695C11.2956 15.8714 11.2996 15.8737 11.3038 15.8756C11.3269 15.8853 11.3507 15.8936 11.3747 15.9017C11.379 15.9028 11.3827 15.9047 11.387 15.9061C11.4108 15.9135 11.435 15.9194 11.4593 15.9248C11.4642 15.9258 11.4689 15.9274 11.4739 15.9286C11.5328 15.9407 11.5938 15.9471 11.6562 15.9471C11.6566 15.9471 11.6571 15.9471 11.6576 15.9471C11.6734 15.9471 11.6889 15.9454 11.7045 15.9447C11.7195 15.9437 11.7346 15.9437 11.7494 15.9423C11.7659 15.9404 11.7817 15.9374 11.7979 15.9348C11.8116 15.9326 11.8257 15.9312 11.8394 15.9284C11.8556 15.9251 11.8714 15.9203 11.8874 15.9161C11.9004 15.9125 11.9133 15.9099 11.9261 15.9059C11.9423 15.9009 11.9579 15.8946 11.9736 15.8884C11.9854 15.8839 11.9977 15.8804 12.0092 15.8754C12.0255 15.8683 12.0412 15.86 12.057 15.8522C12.0674 15.847 12.0782 15.8425 12.0883 15.8371C12.1039 15.8286 12.1187 15.8186 12.1338 15.8094C12.1434 15.8033 12.1536 15.7978 12.163 15.7914C12.1774 15.7817 12.1908 15.7709 12.2044 15.7602C12.2139 15.7531 12.2235 15.7465 12.2327 15.7389C12.2457 15.7283 12.2579 15.7162 12.2704 15.7046C12.2791 15.6966 12.2883 15.6888 12.297 15.6803C12.3085 15.6685 12.3194 15.6557 12.3304 15.6434C12.3387 15.6342 12.3474 15.6254 12.3554 15.6157C12.3653 15.6034 12.3742 15.5904 12.3834 15.5779C12.3914 15.567 12.3999 15.5566 12.4074 15.5457C12.4159 15.5332 12.423 15.5199 12.4308 15.5069C12.4381 15.4949 12.4461 15.483 12.4527 15.4707C12.4597 15.4577 12.4654 15.444 12.4717 15.4308C12.4781 15.4175 12.4852 15.4047 12.4908 15.391C12.4962 15.378 12.5007 15.3643 12.5054 15.3508C12.5108 15.3364 12.5167 15.3222 12.5212 15.3075C12.5254 15.2933 12.5285 15.2789 12.5323 15.2645C12.536 15.2498 12.5405 15.2354 12.5433 15.2205C12.5464 15.2056 12.548 15.1902 12.5504 15.1753C12.5525 15.1602 12.5556 15.1453 12.557 15.1302C12.5586 15.1148 12.5586 15.0992 12.5594 15.0836C12.5603 15.0682 12.5617 15.0533 12.5617 15.0377V4.10662C12.5617 3.40844 13.1269 2.83088 13.8215 2.81881C14.1566 2.81408 14.475 2.94416 14.722 3.18801C14.9792 3.44178 15.1266 3.79253 15.1266 4.15013V15.0878C15.1266 15.1044 15.1283 15.1205 15.1292 15.1368C15.1299 15.1512 15.1299 15.1659 15.1314 15.1803C15.133 15.1964 15.1363 15.212 15.1387 15.2278C15.141 15.2423 15.1424 15.2567 15.1453 15.2706C15.1485 15.2865 15.1533 15.3019 15.1573 15.3175C15.1608 15.3309 15.1634 15.3444 15.1676 15.3577C15.1728 15.3745 15.1794 15.3908 15.1855 15.4071C15.1898 15.4185 15.1933 15.43 15.198 15.4412C15.2053 15.4582 15.2138 15.4745 15.222 15.4911C15.2267 15.5008 15.231 15.5109 15.2362 15.5206C15.2451 15.5374 15.2555 15.5533 15.2656 15.5694C15.271 15.5779 15.2757 15.5871 15.2816 15.5956C15.2924 15.6117 15.3045 15.6271 15.3165 15.6424C15.3224 15.65 15.3275 15.658 15.3337 15.6654C15.3468 15.6817 15.3615 15.6968 15.3758 15.7122C15.3815 15.7179 15.3864 15.7243 15.3921 15.7299C15.4069 15.7451 15.4229 15.7588 15.4389 15.7728C15.4448 15.778 15.4502 15.7836 15.4564 15.7886C15.4743 15.8035 15.4931 15.817 15.5119 15.8305C15.5167 15.8338 15.5211 15.8376 15.5261 15.8411C15.5463 15.8548 15.5675 15.8674 15.589 15.8794C15.593 15.8815 15.5965 15.8844 15.6005 15.8865C15.624 15.8993 15.6481 15.9106 15.6728 15.9215C15.6751 15.9225 15.6773 15.9239 15.6796 15.9248C15.7053 15.9357 15.7317 15.9452 15.7585 15.9537C15.7599 15.9544 15.7613 15.9549 15.763 15.9553C15.8193 15.9731 15.8779 15.9851 15.9385 15.9915C15.9389 15.9915 15.9392 15.9915 15.9396 15.9915C15.97 15.9946 16.0009 15.9963 16.0322 15.9963C16.0324 15.9963 16.0327 15.9963 16.0331 15.9963C16.0491 15.9963 16.0649 15.9946 16.0809 15.9939C16.0958 15.9929 16.1106 15.9929 16.1252 15.9915C16.1419 15.9899 16.1582 15.9866 16.1747 15.984C16.1881 15.9818 16.2018 15.9804 16.2152 15.9776C16.2328 15.974 16.2498 15.9688 16.267 15.9643C16.2785 15.9613 16.2905 15.9589 16.3018 15.9553C16.3202 15.9494 16.3379 15.9423 16.3558 15.9355C16.3654 15.9317 16.3753 15.9286 16.385 15.9246C16.4031 15.9168 16.4205 15.9078 16.4382 15.8988C16.4467 15.8946 16.4556 15.891 16.4641 15.8863C16.4813 15.8768 16.4978 15.8662 16.5145 15.8555C16.5225 15.8506 16.5308 15.8461 16.5388 15.8406C16.5557 15.8293 16.5715 15.8165 16.5875 15.804C16.5943 15.7988 16.6016 15.7938 16.6085 15.7884C16.6243 15.7751 16.6391 15.7607 16.6542 15.7465C16.6603 15.7408 16.6669 15.7356 16.6725 15.7297C16.6871 15.715 16.7008 15.6994 16.7142 15.6836C16.7199 15.6774 16.7258 15.6715 16.7312 15.6651C16.7441 15.6493 16.7559 15.6325 16.7677 15.6159C16.7726 15.6089 16.7783 15.6022 16.7832 15.5951C16.7943 15.5786 16.8042 15.5613 16.8141 15.544C16.8188 15.536 16.8242 15.5284 16.8287 15.5202C16.8381 15.5027 16.8461 15.4844 16.8543 15.4662C16.8584 15.4577 16.8631 15.4494 16.8666 15.4407C16.8741 15.423 16.8803 15.4045 16.8866 15.3863C16.8899 15.3766 16.8941 15.3671 16.8972 15.357C16.9024 15.3397 16.9064 15.3215 16.9109 15.3038C16.9135 15.2924 16.917 15.2813 16.9193 15.2699C16.9229 15.2524 16.925 15.2342 16.9276 15.2165C16.9292 15.2042 16.9318 15.1921 16.933 15.1796C16.9349 15.163 16.9349 15.146 16.9356 15.129C16.9363 15.115 16.9377 15.1013 16.9377 15.0869V7.58191C16.9966 7.07459 17.4255 6.67276 17.9448 6.66377C18.2116 6.65928 18.4692 6.76476 18.6682 6.9613C18.8764 7.16659 18.9958 7.45041 18.9958 7.73966V18.4723L18.9963 18.513C19.0013 19.1021 19.3866 19.6 19.9548 19.7518C20.5194 19.9025 21.0961 19.6643 21.3929 19.1539L21.3985 19.1437C22.1083 17.8983 24.0056 15.9461 24.5595 15.537C24.6236 15.4894 24.6973 15.4513 24.7786 15.423C25.1394 15.2978 25.5918 15.3865 25.905 15.6439C26.0524 15.7652 26.2208 15.9686 26.1836 16.2484Z" fill="#70A6A6"/>
</svg>
