<svg width="32" height="32" viewBox="0 0 32 32" fill="none" xmlns="http://www.w3.org/2000/svg">
<path d="M16 32C7.163 32 0 24.837 0 16C0 7.163 7.163 0 16 0C24.837 0 32 7.163 32 16C32 24.837 24.837 32 16 32ZM18.167 18.444H14.711V16.593H17.972V15.333H14.711V13.556H18.167V12.195H13.115V19.805H18.167V18.444ZM23.087 20C24.926 20 26.268 18.866 26.4 17.221H24.846C24.693 18.059 24.006 18.597 23.092 18.597C21.887 18.597 21.142 17.6 21.142 15.997C21.142 14.394 21.887 13.402 23.087 13.402C23.996 13.402 24.688 13.977 24.841 14.852H26.395C26.279 13.196 24.894 11.999 23.087 11.999C20.873 11.999 19.509 13.523 19.509 15.996C19.509 18.475 20.878 19.999 23.087 19.999V20ZM7.196 17.047H8.501L9.923 19.805H11.73L10.123 16.799C11 16.451 11.508 15.607 11.508 14.637C11.508 13.123 10.478 12.195 8.802 12.195H5.6V19.805H7.196V17.047ZM7.196 13.482V15.823H8.596C9.399 15.823 9.87 15.391 9.87 14.658C9.87 13.936 9.373 13.482 8.581 13.482H7.196Z" fill="#70A6A6"/>
</svg>
