<svg width="24" height="24" viewBox="0 0 24 24" fill="none" xmlns="http://www.w3.org/2000/svg">
<path d="M20.4 19.8C20.2 19.8 20 19.7 19.9 19.5C18.1 16.3 14.7 14.3 11.1 14.3H9.9V17.7C9.9 17.9 9.8 18.2 9.5 18.2C9.3 18.3 9 18.2 8.9 18.1L2.2 11.6C2.1 11.4 2 11.3 2 11.1C2 11 2.1 10.8 2.2 10.7L8.9 4.2C9.1 4 9.3 4 9.6 4C9.8 4.1 10 4.3 10 4.5V8C16 8.1 21 13.1 21 19.2C21 19.5 20.8 19.7 20.6 19.8C20.5 19.8 20.5 19.8 20.4 19.8ZM9.3 13.1H11C14.3 13.1 17.4 14.5 19.5 17C18.5 12.5 14.5 9.2 9.7 9.2H9.3C9 9.1 8.7 8.9 8.7 8.6V6L3.4 11.1L8.7 16.2V13.7C8.7 13.4 9 13.1 9.3 13.1Z" fill="#70A6A6"/>
</svg>
