<svg width="24" height="24" viewBox="0 0 24 24" fill="none" xmlns="http://www.w3.org/2000/svg">
<path d="M12.8 8.1001C12.4 8.1001 12 8.4001 12 8.9001V12.7001C12 12.9001 12.1 13.1001 12.2 13.2001L14.9 15.9001C15 16.0001 15.2 16.1001 15.4 16.1001C15.6 16.1001 15.8 16.0001 15.9 15.9001C16.2 15.6001 16.2 15.1001 15.9 14.8001L13.4 12.3001V8.8001C13.6 8.4001 13.3 8.1001 12.8 8.1001Z" fill="#70A6A6"/>
<path d="M13 3C8.5 3 4.7 6.3 4 10.6H2.6C2.3 10.6 2.1 10.8 2 11C2 11.2 2 11.4 2.2 11.6L4.3 13.7C4.5 13.9 4.9 13.9 5.1 13.7L7.2 11.6C7.4 11.4 7.4 11.2 7.3 11C7.3 10.8 7.1 10.6 6.8 10.6H5.6C6.3 7.1 9.5 4.4 13.1 4.5C17.2 4.6 20.5 8 20.5 12.1C20.4 16.2 17.1 19.5 13 19.5C10.9 19.5 8.9 18.6 7.5 17.1C7.2 16.8 6.8 16.8 6.5 17C6.3 17.1 6.2 17.3 6.2 17.5C6.2 17.7 6.3 17.9 6.4 18.1C8.1 20 10.5 21.1 13.1 21.1C18.1 21.1 22.1 17 22.1 12.1C22.1 7.2 17.9 3 13 3Z" fill="#70A6A6"/>
</svg>
