<svg width="32" height="32" viewBox="0 0 32 32" fill="none" xmlns="http://www.w3.org/2000/svg">
<path d="M16 32C7.163 32 0 24.837 0 16C0 7.163 7.163 0 16 0C24.837 0 32 7.163 32 16C32 24.837 24.837 32 16 32ZM8.8 17.901C8.86 19.372 10.08 20.296 11.961 20.296C13.941 20.296 15.16 19.323 15.16 17.731C15.16 16.506 14.476 15.822 12.89 15.489L11.938 15.287C11.014 15.09 10.636 14.811 10.636 14.324C10.636 13.722 11.183 13.34 12.009 13.34C12.807 13.34 13.387 13.756 13.464 14.379H15.017C14.968 12.974 13.737 12 11.998 12C10.177 12 8.979 12.979 8.979 14.466C8.979 15.669 9.684 16.418 11.123 16.719L12.151 16.938C13.119 17.146 13.513 17.436 13.513 17.939C13.513 18.535 12.906 18.951 12.047 18.951C11.117 18.951 10.472 18.541 10.395 17.901H8.798H8.8ZM16.719 12.197V20.094H19.825C22.188 20.094 23.527 18.656 23.527 16.091C23.527 13.619 22.171 12.197 19.825 12.197H16.719ZM18.37 13.608V18.683H19.562C21.022 18.683 21.842 17.786 21.842 16.118C21.842 14.521 20.994 13.608 19.562 13.608H18.37Z" fill="#70A6A6"/>
</svg>
