<svg width="24" height="25" viewBox="0 0 24 25" fill="none" xmlns="http://www.w3.org/2000/svg">
<path d="M21.5 4.075L11.9 0.075C11.7 -0.025 11.4001 -0.025 11.2001 0.075L1.59998 4.075C1.19998 4.275 1 4.575 1 4.975V9.775C1 16.475 5.00007 22.375 11.2001 24.875C11.4001 24.975 11.7 24.975 11.9 24.875C18.1 22.375 22.1 16.375 22.1 9.775V4.975C22.1 4.575 21.9 4.175 21.5 4.075ZM20.2001 9.775C20.2001 15.475 16.9 20.675 11.6 22.975C6.49998 20.675 3 15.575 3 9.775V5.575L11.6 1.975L20.2001 5.575V9.775ZM10.5 13.075L14.7001 8.875C15.1001 8.475 15.7 8.475 16.1 8.875C16.5 9.275 16.5 9.875 16.1 10.275L11.2001 15.175C10.8001 15.575 10.2 15.575 9.80005 15.175L7.09998 12.475C6.69998 12.075 6.69998 11.475 7.09998 11.075C7.49998 10.675 8.1 10.675 8.5 11.075L10.5 13.075Z" fill="#70A6A6"/>
</svg>
