<svg width="32" height="32" viewBox="0 0 32 32" fill="none" xmlns="http://www.w3.org/2000/svg">
<path d="M24 26.688V13.313H8.00001V26.688H24ZM24 10.688C25.438 10.688 26.688 11.876 26.688 13.313V26.688C26.688 28.126 25.438 29.313 24 29.313H8.00001C6.56201 29.313 5.31201 28.125 5.31201 26.688V13.313C5.31201 11.875 6.56201 10.688 8.00001 10.688H20.125V8.00001C20.125 5.75001 18.25 3.87501 16 3.87501C13.75 3.87501 11.875 5.75001 11.875 8.00001H9.31201C9.31201 4.31201 12.312 1.31201 16 1.31201C19.688 1.31201 22.688 4.31201 22.688 8.00001V10.688H24.001H24ZM16 22.688C14.562 22.688 13.312 21.438 13.312 20C13.312 18.562 14.562 17.312 16 17.312C17.438 17.312 18.688 18.562 18.688 20C18.688 21.438 17.438 22.688 16 22.688Z" fill="#70A6A6"/>
</svg>
