<svg width="24" height="25" viewBox="0 0 24 25" fill="none" xmlns="http://www.w3.org/2000/svg">
<path d="M21.5 4.075L11.9 0.075C11.7 -0.025 11.4001 -0.025 11.2001 0.075L1.59998 4.075C1.19998 4.275 1 4.575 1 4.975V9.775C1 16.475 5.00007 22.375 11.2001 24.875C11.4001 24.975 11.7 24.975 11.9 24.875C18.1 22.375 22.1 16.375 22.1 9.775V4.975C22.1 4.575 21.9 4.175 21.5 4.075ZM20.2001 9.775C20.2001 15.475 16.9 20.675 11.6 22.975C6.49998 20.675 3 15.575 3 9.775V5.575L11.6 1.975L20.2001 5.575V9.775Z" fill="#70A6A6"/>
<path d="M15.0714 13.9857L12.7286 11.6429L15.0714 9.3C15.3571 9.01429 15.3571 8.5 15.0714 8.21429C14.7857 7.92857 14.2714 7.92857 13.9857 8.21429L11.6429 10.5571L9.3 8.21429C9.01429 7.92857 8.5 7.92857 8.21429 8.21429C7.92857 8.5 7.92857 9.01429 8.21429 9.3L10.5571 11.6429L8.21429 13.9857C7.92857 14.2714 7.92857 14.7857 8.21429 15.0714C8.5 15.3571 9.01429 15.3571 9.3 15.0714L11.6429 12.7286L13.9857 15.0714C14.2714 15.3571 14.7857 15.3571 15.0714 15.0714C15.3571 14.7857 15.3571 14.2714 15.0714 13.9857Z" fill="#70A6A6"/>
</svg>
