<svg width="32" height="32" viewBox="0 0 32 32" fill="none" xmlns="http://www.w3.org/2000/svg">
<g clip-path="url(#clip0)">
<path d="M16 11.9844C13.8105 11.9844 11.8947 13.754 11.8947 16.0681C11.8947 18.2462 13.6737 20.1519 16 20.1519C18.3263 20.1519 20.1053 18.3823 20.1053 16.0681C20.1053 13.754 18.1895 11.9844 16 11.9844ZM16 18.11C14.9053 18.11 13.9474 17.1572 13.9474 16.0681C13.9474 14.9791 14.9053 14.0263 16 14.0263C17.0947 14.0263 18.0526 14.9791 18.0526 16.0681C18.0526 17.1572 17.0947 18.11 16 18.11Z" fill="#70A6A6"/>
<path d="M28.5897 19.0628L25.9897 17.0209C26.1265 16.3403 26.1265 15.6597 25.9897 14.9791L28.5897 12.9372C29.0002 12.6649 29.137 12.1204 28.8634 11.5759L26.2634 7.35602C25.9897 6.94764 25.4423 6.67539 25.0318 6.94764L21.8844 8.17277C21.337 7.7644 20.6528 7.35602 20.1055 7.08377L19.6949 3.81675C19.5581 3.40838 19.0107 3 18.6002 3H13.4002C12.9897 3 12.4423 3.40838 12.4423 3.81675L11.8949 7.08377C11.3476 7.35602 10.6634 7.7644 10.116 8.17277L6.96863 6.94764C6.5581 6.67539 6.01073 6.94764 5.73705 7.35602L3.13705 11.712C2.86336 12.1204 3.0002 12.6649 3.41073 13.0733L6.01073 15.1152C5.87389 15.7958 5.87389 16.4764 6.01073 17.1571L3.41073 19.199C3.0002 19.4712 2.86336 20.0157 3.13705 20.5602L5.73705 24.7801C6.01073 25.1885 6.5581 25.4607 6.96863 25.1885L10.116 23.9633C10.6634 24.3717 11.3476 24.7801 11.8949 25.0524L12.3055 28.3194C12.4423 28.8639 12.8528 29.1361 13.2634 29.1361H18.4634C19.0107 29.1361 19.4213 28.7277 19.4213 28.3194L19.8318 25.0524C20.516 24.7801 21.0634 24.3717 21.6107 23.9633L24.7581 25.1885C25.1686 25.3246 25.716 25.1885 25.9897 24.7801L28.5897 20.4241C29.137 20.0157 29.0002 19.3351 28.5897 19.0628ZM25.0318 22.8743L22.1581 21.7853C21.7476 21.6492 21.4739 21.6492 21.2002 21.9215C20.516 22.466 19.6949 22.8743 18.8739 23.2827C18.4634 23.4188 18.3265 23.6911 18.1897 24.0995L17.7792 27.0942H14.3581L13.9476 24.0995C13.9476 23.6911 13.6739 23.4188 13.2634 23.2827C12.4423 23.0105 11.6213 22.6021 10.937 21.9215C10.6634 21.6492 10.2528 21.6492 9.97915 21.7853L7.10547 22.8743L5.46336 20.0157L7.92652 18.2461C8.2002 17.9738 8.33705 17.7016 8.33705 17.2932C8.2002 16.4764 8.2002 15.5236 8.33705 14.7068C8.33705 14.2984 8.2002 13.8901 7.92652 13.7539L5.32652 11.9843L6.96863 9.12565L9.84231 10.2147C10.2528 10.3508 10.5265 10.3508 10.8002 10.0785C11.4844 9.53403 12.3055 9.12565 13.1265 8.71728C13.537 8.71728 13.8107 8.3089 13.9476 8.03665L14.3581 5.04188H17.7792L18.0528 8.03665C18.0528 8.44503 18.3265 8.71728 18.737 8.8534C19.5581 9.12565 20.3792 9.53403 21.0634 10.2147C21.337 10.4869 21.7476 10.4869 22.0213 10.3508L24.8949 9.26178L26.537 12.1204L24.0739 13.8901C23.8002 14.1623 23.6634 14.4346 23.6634 14.8429C23.8002 15.6597 23.8002 16.6126 23.6634 17.4293C23.6634 17.8377 23.8002 18.2461 24.0739 18.3822L26.537 20.1518L25.0318 22.8743Z" fill="#70A6A6"/>
</g>
<defs>
<clipPath id="clip0">
<rect width="26" height="26" fill="white" transform="translate(3 3)"/>
</clipPath>
</defs>
</svg>
