<svg width="50" height="50" viewBox="0 0 50 50" fill="none" xmlns="http://www.w3.org/2000/svg">
<path d="M30.3 13.7001L25 8.4001L19.7 13.7001L18.3 12.3001L25 5.6001L31.7 12.3001L30.3 13.7001Z" fill="black"/>
<path d="M24 7H26V28H24V7Z" fill="black"/>
<path d="M35 40H15C13.3 40 12 38.7 12 37V19C12 17.3 13.3 16 15 16H22V18H15C14.4 18 14 18.4 14 19V37C14 37.6 14.4 38 15 38H35C35.6 38 36 37.6 36 37V19C36 18.4 35.6 18 35 18H28V16H35C36.7 16 38 17.3 38 19V37C38 38.7 36.7 40 35 40Z" fill="black"/>
</svg>
