<svg width="32" height="32" viewBox="0 0 32 32" fill="none" xmlns="http://www.w3.org/2000/svg">
<path d="M27.4 5H4.6C3.66667 5 3 5.66667 3 6.6V18.8667C3 19.8 3.66667 20.4667 4.6 20.4667H27.4C28.3333 20.4667 29 19.8 29 18.8667V6.6C29 5.66667 28.3333 5 27.4 5ZM27.2667 6.73333V18.7333H4.73333V6.73333H27.2667V6.73333Z" fill="#70A6A6"/>
<path d="M13.1333 17C13.2667 17 13.4 17.1333 13.5333 17.1333C13.6667 17.1333 13.8 17.1333 14.0667 17L19 13.4C19.2667 13.2667 19.4 13 19.4 12.7333C19.4 12.4667 19.2667 12.2 19 12.0667L14.0667 8.60001C13.8 8.46667 13.4 8.33334 13.1333 8.60001C12.8667 8.60001 12.7333 8.86667 12.7333 9.26667V16.3333C12.7333 16.6 12.8667 16.8667 13.1333 17ZM14.3333 14.6V10.8667L16.8667 12.7333L14.3333 14.6Z" fill="#70A6A6"/>
<path d="M28.2 22.7335H18.4667C18.0667 21.8002 17.2667 21.1335 16.2 21.1335C15.1333 21.1335 14.3333 21.8002 13.9333 22.7335H3.8C3.4 22.7335 3 23.1335 3 23.6669C3 24.2002 3.4 24.4669 3.8 24.4669H13.8C14.2 25.4002 15 26.0669 16.0667 26.0669C17.1333 26.0669 17.9333 25.4002 18.3333 24.4669H28.0667C28.6 24.4669 28.8667 24.0669 28.8667 23.6669C28.8667 23.2669 28.6 22.7335 28.2 22.7335ZM16.8667 23.6669C16.8667 24.0669 16.6 24.3335 16.2 24.3335C15.8 24.3335 15.5333 24.0669 15.5333 23.6669C15.5333 23.2669 15.8 23.0002 16.2 23.0002C16.6 23.0002 16.8667 23.2669 16.8667 23.6669Z" fill="#70A6A6"/>
</svg>
