<svg width="32" height="32" viewBox="0 0 32 32" fill="none" xmlns="http://www.w3.org/2000/svg">
<path d="M13.4286 27.7143C13.4286 28.2857 13 28.7143 12.4286 28.7143H9C6.85714 28.7143 5 26.8571 5 24.7143V7C5 4.85714 6.85714 3 9 3H21.2857C23.5714 3 25.2857 4.85714 25.2857 7V13.1429C25.2857 13.7143 24.8571 14.1429 24.2857 14.1429C23.7143 14.1429 23.2857 13.7143 23.2857 13.1429V7C23.2857 5.85714 22.4286 5 21.2857 5H9C7.85714 5 7 5.85714 7 7V24.7143C7 25.8571 7.85714 26.7143 9 26.7143H12.4286C13 26.7143 13.4286 27.1429 13.4286 27.7143ZM20.4286 9H10C9.42857 9 9 9.42857 9 10C9 10.5714 9.42857 11 10 11H20.2857C20.8571 11 21.2857 10.5714 21.2857 10C21.2857 9.42857 20.8571 9 20.4286 9ZM21.4286 14C21.4286 13.4286 21 13 20.4286 13H10C9.42857 13 9 13.4286 9 14C9 14.5714 9.42857 15 10 15H20.2857C20.8571 15 21.4286 14.5714 21.4286 14ZM10 17C9.42857 17 9 17.4286 9 18C9 18.5714 9.42857 19 10 19H16.2857C16.8571 19 17.2857 18.5714 17.2857 18C17.2857 17.4286 16.8571 17 16.2857 17H10ZM27.1429 21.8571L21.7143 27.2857C21.5714 27.4286 21.4286 27.4286 21.2857 27.5714L17.1429 28.7143C17 28.7143 17 28.7143 16.8571 28.7143C16.5714 28.7143 16.2857 28.5714 16.1429 28.4286C15.8571 28.1429 15.8571 27.7143 15.8571 27.4286L17 23.4286C17 23.2857 17.1429 23.1429 17.2857 23L22.8571 17.4286C24 16.2857 26 16.2857 27.1429 17.4286C28.2857 18.7143 28.2857 20.5714 27.1429 21.8571ZM24.1429 22L22.7143 20.5714L19 24.2857L18.4286 26.2857L20.4286 25.7143L24.1429 22ZM25.7143 19C25.2857 18.5714 24.7143 18.5714 24.2857 19L24.1429 19.1429L25.5714 20.5714L25.7143 20.4286C26.1429 20 26.1429 19.2857 25.7143 19Z" fill="#70A6A6"/>
</svg>
