<svg width="32" height="32" viewBox="0 0 32 32" fill="none" xmlns="http://www.w3.org/2000/svg">
<path d="M26.7 4H4.3C3 4 2 5 2 6.3V23.5C2 24.8 3 25.8 4.3 25.8H26.7C28 25.8 29 24.8 29 23.5V6.3C29.1 5 28 4 26.7 4ZM27.1 23.5C27.1 23.7 27 23.8 26.8 23.8H4.3C4.1 23.8 4 23.7 4 23.5V6.3C4 6.1 4.1 6 4.3 6H26.7C26.9 6 27 6.1 27 6.3V23.5H27.1Z" fill="#70A6A6"/>
<path d="M15.7 9.49995C15.3 9.09995 14.7 9.09995 14.3 9.49995L9.59999 14.2C9.19999 14.6 9.19999 15.2 9.59999 15.6C9.99999 16 10.6 16 11 15.6L14 12.6V18.8C14 19.4 14.4 19.8 15 19.8C15.6 19.8 16 19.4 16 18.8V12.7L19 15.7C19.2 15.9 19.5 16 19.7 16C19.9 16 20.2 15.9 20.4 15.7C20.8 15.3 20.8 14.7 20.4 14.3L15.7 9.49995Z" fill="#70A6A6"/>
</svg>
