<svg width="20" height="20" viewBox="0 0 20 20" fill="none" xmlns="http://www.w3.org/2000/svg">
<path d="M2.41422 19.969C1.52331 19.969 1.07714 18.8919 1.70711 18.2619L18.2619 1.70711C18.8919 1.07714 19.969 1.52331 19.969 2.41421V5C19.969 5.55228 19.5213 6 18.969 6H17.985C16.8804 6 15.985 6.89543 15.985 8V19.969H2.41422ZM18.9845 19.969C18.4408 19.969 18 19.5282 18 18.9845V18.9845C18 18.4408 18.4408 18 18.9845 18V18C19.5282 18 19.969 18.4408 19.969 18.9845V18.9845C19.969 19.5282 19.5282 19.969 18.9845 19.969V19.969ZM18.9845 15.985C18.4408 15.985 18 15.5442 18 15.0005V8.9535C18 8.40978 18.4408 7.969 18.9845 7.969V7.969C19.5282 7.969 19.969 8.40978 19.969 8.9535V15.0005C19.969 15.5442 19.5282 15.985 18.9845 15.985V15.985Z" fill="#70A6A6"/>
</svg>
