<svg width="32" height="32" viewBox="0 0 32 32" fill="none" xmlns="http://www.w3.org/2000/svg">
<path d="M27.374 10.6441L20.4633 9.69214L17.7317 3.15357C17.3344 2.19618 16.2352 1.74468 15.2775 2.14722C14.8204 2.33761 14.4613 2.70207 14.2709 3.15357L11.5338 9.68671L4.62303 10.6387C3.59458 10.7801 2.8763 11.732 3.01778 12.7602C3.07764 13.2008 3.2953 13.6088 3.62723 13.9079L8.83477 18.548L7.76279 25.8373C7.64852 26.5771 7.98589 27.3115 8.62255 27.7086C9.25377 28.1111 10.0591 28.0948 10.674 27.6705L15.9958 24.0531L21.3176 27.6759C22.1774 28.258 23.3419 28.035 23.9296 27.1755C24.1962 26.7838 24.305 26.3106 24.2343 25.8427L23.1623 18.5535L28.3698 13.9134C29.148 13.2225 29.2133 12.0312 28.5222 11.2588C28.2229 10.9215 27.8202 10.7039 27.374 10.6441ZM21.5516 17.5036C21.3176 17.7103 21.2034 18.0204 21.2523 18.3305L22.3678 26.1311L16.5236 22.16C16.208 21.9479 15.7945 21.9479 15.4789 22.16L9.60203 26.1093L10.7447 18.3305C10.7883 18.0204 10.674 17.7158 10.4455 17.5036L4.87334 12.4827L12.3119 11.4546C12.6384 11.4111 12.9159 11.1935 13.0411 10.8943L16.0121 3.8553C16.0176 3.86074 16.0176 3.86618 16.0176 3.87162L18.956 10.8943C19.0812 11.199 19.3587 11.4111 19.6852 11.4546L27.1292 12.5263L21.5516 17.5036Z" fill="#70A6A6"/>
</svg>
