<svg width="32" height="32" viewBox="0 0 32 32" fill="none" xmlns="http://www.w3.org/2000/svg">
<path d="M28.6716 10.0592C28.397 9.92194 28.1225 9.92194 27.7106 10.0592L21.6702 13.2167V10.8829C21.6702 9.23553 20.4347 8 18.9246 8H5.74562C4.23553 8 3 9.23553 3 10.8829V22.4145C3 24.0619 4.23553 25.2974 5.74562 25.2974H18.7873C20.2974 25.2974 21.533 24.0619 21.533 22.4145V20.0807L27.5733 23.2382C27.9852 23.5128 28.5343 23.2382 28.8089 22.8264C28.8089 22.6891 28.9461 22.5518 28.9461 22.4145V10.8829C29.0834 10.6083 28.9461 10.1965 28.6716 10.0592ZM19.7483 22.4145C19.7483 22.9637 19.3365 23.3755 18.7873 23.3755H5.74562C5.1965 23.3755 4.78466 22.9637 4.78466 22.4145V10.8829C4.78466 10.3338 5.1965 9.92194 5.74562 9.92194H18.7873C19.3365 9.92194 19.7483 10.3338 19.7483 10.8829V22.4145ZM27.1615 20.7672L21.533 17.8842V15.2759L27.1615 12.393V20.7672Z" fill="#71A6A7"/>
<path d="M15.218 15.9624C14.9435 16.237 14.9435 16.7861 15.218 17.0606L16.4536 18.2962H10.6877C10.2759 18.2962 10.0013 18.5707 10.0013 18.9826C10.0013 19.3944 10.2759 19.669 10.6877 19.669H16.4536L15.218 21.0418C14.9435 21.3164 14.9435 21.7282 15.218 22.0028C15.4926 22.2773 15.9044 22.2773 16.179 22.0028L18.6501 19.5317C18.7873 19.3944 18.9246 19.2571 18.9246 18.9826C18.9246 18.8453 18.7873 18.5707 18.6501 18.4335L16.179 15.9624C15.9044 15.6878 15.4926 15.6878 15.218 15.9624Z" fill="#71A6A7"/>
<path d="M9.45223 17.7471C9.72679 17.4725 9.72679 17.0607 9.45223 16.7861L8.07942 15.4133H13.9825C14.3944 15.4133 14.6689 15.1387 14.6689 14.7269C14.6689 14.315 14.3944 14.0405 13.9825 14.0405H8.07942L9.31495 12.805C9.58951 12.5304 9.58951 12.1185 9.31495 11.844C9.04038 11.5694 8.62854 11.5694 8.35398 11.844L5.88292 14.1778C5.74564 14.315 5.74564 14.5896 5.74564 14.7269C5.74564 14.8642 5.74564 15.1387 5.88292 15.276L8.35398 17.7471C8.62854 18.0216 9.17767 18.0216 9.45223 17.7471Z" fill="#71A6A7"/>
</svg>
