<svg width="24" height="24" viewBox="0 0 24 24" fill="none" xmlns="http://www.w3.org/2000/svg">
<path d="M12 15.984C13.078 15.984 14.016 16.922 14.016 18C14.016 19.078 13.078 20.016 12 20.016C10.922 20.016 9.98401 19.078 9.98401 18C9.98401 16.922 10.922 15.984 12 15.984ZM12 9.98401C13.078 9.98401 14.016 10.922 14.016 12C14.016 13.078 13.078 14.016 12 14.016C10.922 14.016 9.98401 13.078 9.98401 12C9.98401 10.922 10.922 9.98401 12 9.98401ZM12 8.01601C10.922 8.01601 9.98401 7.07801 9.98401 6.00001C9.98401 4.92201 10.922 3.98401 12 3.98401C13.078 3.98401 14.016 4.92201 14.016 6.00001C14.016 7.07801 13.078 8.01601 12 8.01601Z" fill="#71A6A7"/>
</svg>
