<svg width="448" height="512" viewBox="0 0 448 512" fill="none" xmlns="http://www.w3.org/2000/svg">
<path d="M389.783 72.7579H330.478V64.6737C330.478 29.6421 303.522 0 268.478 0H179.522C144.478 0 117.522 29.6421 117.522 64.6737V72.7579H58.2174C31.2609 72.7579 7 97.0105 7 123.958V161.684C7 172.463 15.087 177.853 23.1739 177.853H36.6522L60.913 495.832C60.913 503.916 69 512 79.7826 512H370.913C379 512 387.087 503.916 387.087 495.832L411.348 180.547H424.826C435.609 180.547 441 172.463 441 164.379V123.958C441 97.0105 416.739 72.7579 389.783 72.7579ZM149.87 64.6737C149.87 48.5053 163.348 35.0316 179.522 35.0316H268.478C284.652 35.0316 298.13 48.5053 298.13 64.6737V72.7579H149.87V64.6737ZM42.0435 123.958C42.0435 115.874 50.1304 107.789 58.2174 107.789H387.087C397.87 107.789 403.261 115.874 403.261 123.958V145.516H42.0435V123.958ZM352.043 476.968H95.9565L71.6957 180.547H373.609L352.043 476.968Z" fill="#70A6A6"/>
<path d="M222.652 441.937C233.435 441.937 238.826 433.853 238.826 425.768V231.747C241.522 220.968 233.435 215.579 222.652 215.579C214.565 215.579 206.478 220.968 206.478 231.747V423.074C206.478 433.853 214.565 441.937 222.652 441.937Z" fill="#70A6A6"/>
<path d="M292.739 441.937C303.522 441.937 311.609 433.853 311.609 425.768L322.391 234.442C322.391 223.663 314.304 215.579 306.217 215.579C295.435 215.579 287.348 223.663 287.348 231.747L276.565 423.074C276.565 433.853 281.957 441.937 292.739 441.937Z" fill="#70A6A6"/>
<path d="M155.261 441.936C166.044 441.936 174.13 433.852 171.435 423.073L160.652 231.747C160.652 220.968 152.565 212.884 141.783 215.578C133.696 215.578 125.609 223.663 125.609 231.747L136.391 423.073C136.391 433.852 144.478 441.936 155.261 441.936Z" fill="#70A6A6"/>
</svg>
