<svg width="24" height="24" viewBox="0 0 24 24" fill="none" xmlns="http://www.w3.org/2000/svg">
<path d="M12.0185 20.7717H3.68353C3.30606 20.7717 3 20.4656 3 20.0881V18.4864C3 14.9872 5.84632 12.1409 9.34557 12.1409H11.1003C12.0899 12.1409 13.0488 12.3755 13.967 12.8346L13.3549 14.0588C12.6306 13.7018 11.8756 13.5181 11.1003 13.5181H9.34557C6.60126 13.5181 4.36705 15.7523 4.36705 18.4966V19.4148H12.0185V20.7717Z" fill="#70A6A6"/>
<path d="M10.2128 11.4063C7.89693 11.4063 6.00958 9.519 6.00958 7.20317C6.00958 4.88735 7.89693 3 10.2128 3C12.5286 3 14.4159 4.88735 14.4159 7.20317C14.4159 9.519 12.5286 11.4063 10.2128 11.4063ZM10.2128 4.36705C8.65187 4.36705 7.37664 5.64229 7.37664 7.20317C7.37664 8.76406 8.65187 10.0393 10.2128 10.0393C11.7736 10.0393 13.0489 8.76406 13.0489 7.20317C13.0489 5.64229 11.7736 4.36705 10.2128 4.36705Z" fill="#70A6A6"/>
<path d="M15.8748 22.8529C12.9571 22.8529 10.58 20.4758 10.58 17.5581C10.58 14.6403 12.9571 12.2633 15.8748 12.2633C18.7925 12.2633 21.1696 14.6403 21.1696 17.5581C21.1798 20.4758 18.8027 22.8529 15.8748 22.8529ZM15.8748 13.6202C13.712 13.6202 11.9471 15.3851 11.9471 17.5479C11.9471 19.7107 13.712 21.4756 15.8748 21.4756C18.0376 21.4756 19.8025 19.7107 19.8025 17.5479C19.8127 15.3851 18.0478 13.6202 15.8748 13.6202Z" fill="#70A6A6"/>
<path d="M15.8748 20.1289C15.4973 20.1289 15.1913 19.8229 15.1913 19.4454V15.6503C15.1913 15.2729 15.4973 14.9668 15.8748 14.9668C16.2523 14.9668 16.5583 15.2729 16.5583 15.6503V19.4454C16.5685 19.8229 16.2625 20.1289 15.8748 20.1289Z" fill="#70A6A6"/>
<path d="M17.7723 18.2417H13.9772C13.5998 18.2417 13.2937 17.9356 13.2937 17.5582C13.2937 17.1807 13.5998 16.8746 13.9772 16.8746H17.7723C18.1498 16.8746 18.4558 17.1807 18.4558 17.5582C18.4558 17.9356 18.1498 18.2417 17.7723 18.2417Z" fill="#70A6A6"/>
</svg>
