<svg width="32" height="32" viewBox="0 0 32 32" fill="none" xmlns="http://www.w3.org/2000/svg">
<path d="M5.85137 17.2819C5.27546 16.562 4.69956 15.9861 4.4116 15.5542C5.70739 14.1144 9.59475 9.93908 14.058 9.07523L16.3616 6.77161C16.2177 6.77161 15.9297 6.77161 15.7857 6.77161C8.29896 6.77161 2.39593 14.6903 2.10798 14.9783C1.96401 15.2662 1.96401 15.8421 2.10798 16.274C2.25196 16.418 2.97184 17.4259 4.26763 18.7216L5.85137 17.2819Z" fill="#70A6A6"/>
<path d="M29.4634 14.9782C29.3194 14.6902 26.2959 10.8029 21.9766 8.49926L24.4242 6.05166C24.8562 5.61973 24.8562 4.89985 24.4242 4.32395C23.9923 3.89202 23.2724 3.89202 22.6965 4.32395L4.55551 22.6089C4.12359 23.0409 4.12359 23.7607 4.55551 24.3367C4.98744 24.7686 5.70732 24.7686 6.28323 24.3367L8.44287 22.177C10.6025 23.6168 13.0501 24.6246 15.7857 24.6246C23.2724 24.6246 29.1755 16.7059 29.4634 16.418C29.7514 15.8421 29.7514 15.2661 29.4634 14.9782ZM17.6574 12.6746C18.6652 13.3945 19.2411 14.4023 19.2411 15.5541C19.2411 17.4258 17.6574 19.0095 15.7857 19.0095C14.6339 19.0095 13.482 18.4336 12.9061 17.4258L17.6574 12.6746ZM15.7857 22.321C13.626 22.321 11.7543 21.4571 9.88264 20.4493L11.3224 19.0095C12.3302 20.3053 13.914 21.1692 15.6417 21.1692C18.6652 21.1692 21.2568 18.7216 21.2568 15.5541C21.2568 13.8264 20.3929 12.2426 19.0971 11.2348L20.2489 10.083C23.5604 11.6667 26.008 14.4023 27.0158 15.5541C25.72 17.2818 21.1128 22.321 15.7857 22.321Z" fill="#70A6A6"/>
</svg>
