<svg width="32" height="32" viewBox="0 0 32 32" fill="none" xmlns="http://www.w3.org/2000/svg">
<path d="M30.6891 14.7339C30.3783 14.4274 24.0052 6 15.9223 6C7.8394 6 1.46634 14.4274 1.15546 14.7339C1.00002 15.1935 1.00002 15.8065 1.15546 16.1129C1.46634 16.4194 7.8394 24.8468 15.9223 24.8468C24.0052 24.8468 30.3783 16.4194 30.6891 16.1129C31 15.8065 31 15.1935 30.6891 14.7339ZM15.9223 22.7016C10.171 22.7016 5.19691 17.3387 3.64251 15.5C5.19691 13.6613 10.171 8.29839 15.9223 8.29839C21.6736 8.29839 26.6477 13.6613 28.2021 15.5C26.6477 17.3387 21.6736 22.7016 15.9223 22.7016Z" fill="#70A6A6"/>
<path d="M15.9223 9.52417C12.658 9.52417 9.86011 12.129 9.86011 15.5C9.86011 18.8709 12.5026 21.4758 15.9223 21.4758C19.342 21.4758 21.9845 18.8709 21.9845 15.5C21.9845 12.129 19.342 9.52417 15.9223 9.52417ZM15.9223 19.1774C13.9016 19.1774 12.1917 17.4919 12.1917 15.5C12.1917 13.508 13.9016 11.8226 15.9223 11.8226C17.943 11.8226 19.6529 13.508 19.6529 15.5C19.6529 17.4919 17.943 19.1774 15.9223 19.1774Z" fill="#70A6A6"/>
</svg>
