<svg width="24" height="24" viewBox="0 0 24 24" fill="none" xmlns="http://www.w3.org/2000/svg">
<path d="M16.3137 2.16644C15.8699 1.94452 15.426 1.94452 14.9822 2.16644L6.43836 7.38145H4.77397C3.22055 7.38145 2 8.602 2 10.1554V14.039C2 15.5924 3.22055 16.813 4.77397 16.813H6.21643L15.0931 22.028C15.3151 22.139 15.537 22.25 15.7589 22.25C15.9809 22.25 16.2027 22.139 16.4247 22.028C16.8685 21.8061 17.0904 21.3623 17.0904 20.9185V3.38696C17.0904 2.83216 16.7576 2.38836 16.3137 2.16644ZM5.77263 15.1486H4.77397C4.10822 15.1486 3.66438 14.5938 3.66438 14.039V10.1554C3.66438 9.48967 4.21918 9.04584 4.77397 9.04584H5.77263V15.1486ZM15.3151 20.2527L7.32601 15.5924V8.71297L15.3151 3.83082V20.2527Z" fill="#70A6A6"/>
</svg>
