<svg width="32" height="32" viewBox="0 0 32 32" fill="none" xmlns="http://www.w3.org/2000/svg">
<path d="M20.5548 3.21575C19.9795 2.92808 19.4041 2.92808 18.8288 3.21575L7.75343 9.97596H5.59589C3.58219 9.97596 2 11.5582 2 13.5719V18.6061C2 20.6198 3.58219 22.202 5.59589 22.202H7.46574L18.9726 28.9623C19.2603 29.1061 19.548 29.25 19.8357 29.25C20.1233 29.25 20.411 29.1061 20.6986 28.9623C21.274 28.6746 21.5616 28.0993 21.5616 27.5239V4.79791C21.5616 4.07873 21.1302 3.50342 20.5548 3.21575ZM6.89045 20.0445H5.59589C4.73288 20.0445 4.15754 19.3253 4.15754 18.6061V13.5719C4.15754 12.7088 4.87671 12.1335 5.59589 12.1335H6.89045V20.0445ZM19.2603 26.661L8.90409 20.6198V11.702L19.2603 5.37329V26.661Z" fill="#70A6A6"/>
<path d="M24.4384 9.97595C23.863 9.97595 23.4316 10.4075 23.4316 10.9828V21.9144C23.4316 22.4897 23.863 22.9212 24.4384 22.9212C25.0137 22.9212 25.4452 22.4897 25.4452 21.9144V10.9828C25.4452 10.4075 25.0137 9.97595 24.4384 9.97595Z" fill="#70A6A6"/>
<path d="M28.1781 6.52393C27.6028 6.52393 27.1713 6.95545 27.1713 7.53079V25.3664C27.1713 25.9417 27.6028 26.3732 28.1781 26.3732C28.7535 26.3732 29.185 25.9417 29.185 25.3664V7.53079C29.185 6.95545 28.7535 6.52393 28.1781 6.52393Z" fill="#70A6A6"/>
</svg>
