<svg width="24" height="24" viewBox="0 0 24 24" fill="none" xmlns="http://www.w3.org/2000/svg">
<path d="M14.7197 4.17994V10.6975L16.2965 12.2743V3.65433C16.2965 3.23385 16.0863 2.81336 15.6658 2.60312C15.2453 2.39287 14.8248 2.39287 14.4043 2.60312L9.46362 5.54652L10.62 6.70286L14.7197 4.17994Z" fill="#70A6A6"/>
<path d="M14.7197 19.7379L7.15096 15.3228V8.80527L9.35851 7.43869L8.3073 6.28235L6.30999 7.43869H4.62804C3.15634 7.43869 2 8.59503 2 10.0667V13.746C2 15.2177 3.15634 16.374 4.62804 16.374H5.99462L14.4044 21.3147C14.6146 21.4199 14.8248 21.525 15.0351 21.525C15.2453 21.525 15.4556 21.4199 15.6658 21.3147C16.0863 21.1045 16.2965 20.684 16.2965 20.2635V14.3767L14.7197 12.7999V19.7379ZM5.57414 14.7972H4.62804C3.99731 14.7972 3.57682 14.2716 3.57682 13.746V10.0667C3.57682 9.436 4.10243 9.01551 4.62804 9.01551H5.57414V14.7972Z" fill="#70A6A6"/>
<path d="M19.24 8.17457C19.24 7.75409 18.9246 7.43872 18.5041 7.43872C18.0836 7.43872 17.7682 7.85921 17.7682 8.17457V13.746L19.24 15.2177V8.17457Z" fill="#70A6A6"/>
<path d="M21.9731 5.65162C21.9731 5.23114 21.6577 4.91577 21.2372 4.91577C20.8167 4.91577 20.5014 5.23114 20.5014 5.65162V16.4792L21.9731 17.9509V5.65162Z" fill="#70A6A6"/>
<path d="M2.31538 1.23652C2.00002 1.55189 2.00002 1.97238 2.31538 2.28774L20.8168 20.7891C21.1322 21.1045 21.5526 21.1045 21.868 20.7891C22.1834 20.4738 22.1834 20.0533 21.868 19.7379L3.26148 1.23652C3.05123 0.921159 2.63075 0.921159 2.31538 1.23652Z" fill="#70A6A6"/>
</svg>
