<svg width="24" height="24" viewBox="0 0 24 24" fill="none" xmlns="http://www.w3.org/2000/svg">
<path d="M11.501 15.4896C10.9129 15.4896 10.4218 15.9806 10.4218 16.5688C10.4218 17.1569 10.9129 17.648 11.501 17.648C12.0676 17.648 12.5802 17.1569 12.5532 16.5958C12.5802 15.9753 12.0892 15.4896 11.501 15.4896Z" fill="#70A6A6"/>
<path d="M21.4887 19.3153C22.1686 18.1444 22.1686 16.7523 21.4995 15.5867L14.7385 3.87776C14.0694 2.70146 12.8608 2 11.5064 2C10.1521 2 8.94338 2.70146 8.2743 3.87236L1.50251 15.5921C0.828025 16.7684 0.833421 18.1714 1.5133 19.3423C2.18778 20.497 3.39105 21.193 4.74002 21.193H18.2404C19.5948 21.1984 20.8089 20.4916 21.4887 19.3153ZM20.0211 18.4681C19.6434 19.1156 18.9797 19.4987 18.2404 19.4987H4.73462C4.00078 19.4987 3.34249 19.121 2.97557 18.4897C2.60326 17.8476 2.59786 17.076 2.97018 16.4285L9.73657 4.71411C10.1035 4.07201 10.7618 3.6889 11.501 3.6889C12.2402 3.6889 12.8985 4.07201 13.2655 4.71411L20.0319 16.4285C20.3988 17.0652 20.3934 17.826 20.0211 18.4681Z" fill="#70A6A6"/>
<path d="M11.2312 7.91384C10.7186 8.05953 10.4003 8.52897 10.4003 9.09014C10.4272 9.43007 10.4488 9.77541 10.4758 10.1153C10.5514 11.4157 10.6215 12.6892 10.697 13.9896C10.724 14.432 11.064 14.7504 11.5064 14.7504C11.9489 14.7504 12.2942 14.4104 12.3158 13.9626C12.3158 13.6928 12.3158 13.45 12.3428 13.1748C12.3913 12.3438 12.4399 11.5075 12.4885 10.6765C12.5154 10.1369 12.564 9.59735 12.5856 9.05776C12.5856 8.86351 12.5586 8.69084 12.4885 8.51818C12.2618 8.03795 11.7438 7.79513 11.2312 7.91384Z" fill="#70A6A6"/>
</svg>
