<svg width="16" height="12" viewBox="0 0 16 12" fill="none" xmlns="http://www.w3.org/2000/svg">
<path d="M8.9008 8.52815C8.30452 8.30455 7.55916 8.37908 7.11194 8.90083C6.44112 9.57166 6.44112 10.6152 7.11194 11.286C7.41009 11.5841 7.8573 11.8077 8.30452 11.8077C8.52812 11.8077 8.75173 11.7332 8.97534 11.6587C9.57162 11.3605 10.0188 10.8388 10.0188 10.0934C10.0188 9.34805 9.49709 8.75176 8.9008 8.52815ZM8.60266 10.1679C8.52812 10.317 8.37905 10.3915 8.22998 10.3915C8.00637 10.3915 7.8573 10.2425 7.8573 10.0189C7.8573 9.8698 7.93184 9.72073 8.08091 9.64619C8.15544 9.64619 8.15544 9.64619 8.22998 9.64619C8.30452 9.64619 8.37905 9.64619 8.45359 9.72073C8.67719 9.94433 8.67719 10.0934 8.60266 10.1679Z" fill="#70A6A6"/>
<path d="M8.22995 3.31055C6.21749 3.31055 4.27956 4.20498 3.01245 5.84476C2.78884 6.14291 2.78884 6.51559 3.08698 6.73919C3.23606 6.81373 3.38513 6.88827 3.5342 6.88827H3.60873C3.75781 6.88827 3.90688 6.81373 4.05595 6.66466C5.09945 5.39755 6.6647 4.65219 8.30449 4.65219C9.94428 4.65219 11.5095 5.39755 12.553 6.66466C12.6276 6.81373 12.8512 6.88827 13.0002 6.88827C13.1493 6.88827 13.3729 6.88827 13.4475 6.73919C13.5965 6.66466 13.6711 6.44105 13.6711 6.29198C13.6711 6.14291 13.6711 5.9193 13.522 5.84476C12.1804 4.20498 10.317 3.31055 8.22995 3.31055Z" fill="#70A6A6" fill-opacity="0.3"/>
<path d="M15.3854 4.50318C13.6711 2.26711 11.0623 1 8.22997 1C5.47215 1 2.8634 2.26711 1.14907 4.50318C1 4.57772 1 4.80133 1 4.9504C1 5.09947 1.07454 5.24854 1.22361 5.39761C1.37268 5.47215 1.52175 5.54668 1.67082 5.54668C1.89443 5.54668 2.0435 5.47215 2.19257 5.32308C3.68329 3.45968 5.91936 2.34164 8.30451 2.34164C10.6897 2.34164 12.9257 3.45968 14.4164 5.32308C14.6401 5.62122 15.0127 5.62122 15.3109 5.39761C15.4599 5.32308 15.5345 5.17401 15.5345 4.9504C15.5345 4.80133 15.5345 4.57772 15.3854 4.50318Z" fill="#70A6A6" fill-opacity="0.3"/>
<path d="M5.24855 7.03745C5.02494 7.26106 5.02494 7.70827 5.24855 7.93188C5.47215 8.15549 5.91937 8.15549 6.14298 7.93188C6.73926 7.33559 7.48462 7.03745 8.30452 7.03745C9.12441 7.03745 9.86977 7.33559 10.4661 7.93188C10.6151 8.08095 10.7642 8.15549 10.9133 8.15549C11.0623 8.15549 11.2114 8.08095 11.3605 7.93188C11.5841 7.70827 11.5841 7.26106 11.3605 7.03745C9.64616 5.32313 6.88833 5.32313 5.24855 7.03745Z" fill="#70A6A6"/>
</svg>
